<?xml version="1.0" encoding="UTF-8" standalone="no"?>
<!-- Created with Inkscape (http://www.inkscape.org/) -->

<svg
   version="1.1"
   id="svg1"
   width="748.79999"
   height="703.20001"
   viewBox="0 0 748.79999 703.20001"
   sodipodi:docname="logo SedhNero.svg"
   inkscape:version="1.4 (86a8ad7, 2024-10-11)"
   xmlns:inkscape="http://www.inkscape.org/namespaces/inkscape"
   xmlns:sodipodi="http://sodipodi.sourceforge.net/DTD/sodipodi-0.dtd"
   xmlns="http://www.w3.org/2000/svg"
   xmlns:svg="http://www.w3.org/2000/svg">
  <defs
     id="defs1" />
  <sodipodi:namedview
     id="namedview1"
     pagecolor="#ffffff"
     bordercolor="#000000"
     borderopacity="0.25"
     inkscape:showpageshadow="2"
     inkscape:pageopacity="0.0"
     inkscape:pagecheckerboard="0"
     inkscape:deskcolor="#d1d1d1"
     showgrid="false"
     inkscape:zoom="1.1134812"
     inkscape:cx="374.50116"
     inkscape:cy="279.30422"
     inkscape:window-width="1920"
     inkscape:window-height="1001"
     inkscape:window-x="-9"
     inkscape:window-y="-9"
     inkscape:window-maximized="1"
     inkscape:current-layer="g1" />
  <g
     inkscape:groupmode="layer"
     inkscape:label="Image"
     id="g1">
    <path
       id="path1"
       style="fill:#000000"
       d="m 366.83008,3.0664062 c -7.36471,0.1402047 -14.40957,0.4956214 -20.92774,1.0761719 -52.84142,4.706407 -97.59039,16.9182209 -142.375,38.8535159 -18.36944,8.997268 -24.76512,12.686547 -45.625,26.310547 -17.39678,11.36218 -36.08482,26.91925 -54.84961,45.660159 -16.075551,16.05508 -29.699895,32.7246 -43.185542,52.83789 -28.682571,42.77889 -47.044567,91.14929 -53.9042974,142 -4.17191,30.92612 -3.5621175,68.66446 1.5703125,97.19922 5.8556699,32.5558 15.4005509,61.85618 29.7070309,91.19921 23.68258,48.57372 60.89234,92.91255 105.861326,126.14063 8.47399,6.26152 26.25783,18.03213 32.40039,21.44531 2.2,1.22245 7.09995,3.94842 10.88867,6.05664 7.71373,4.29225 24.0073,12.23859 31.91211,15.56446 10.27198,4.32185 33.39788,12.57505 43.59961,15.56054 27.68153,8.10088 60.6493,13.73489 89.19922,15.24219 41.71467,2.20234 94.45011,-3.96044 131.20117,-15.33398 15.839,-4.90178 29.66528,-9.63001 34.79883,-11.89844 0.88,-0.38886 6.28,-2.74394 12,-5.23242 37.43965,-16.28805 71.94985,-38.57237 101.59961,-65.60743 32.67075,-29.78962 57.47934,-62.17252 77.16992,-100.73632 19.74044,-38.66146 29.94941,-73.26489 35.4043,-120 1.2647,-10.83576 1.21272,-49.84498 -0.084,-62.80078 -3.47497,-34.72064 -13.83102,-73.80211 -27.13282,-102.4004 -1.33026,-2.85999 -3.29424,-7.1796 -4.36523,-9.5996 -5.46005,-12.33744 -24.70669,-43.8228 -33.92188,-55.49414 -6.45201,-8.17168 -17.01682,-21.02146 -19.49023,-23.70508 -8.6324,-9.36607 -22.77074,-23.30177 -30.7793,-30.337894 -13.0431,-11.45934 -38.47525,-30.11656 -49.59961,-36.386718 -1.32,-0.744012 -5.10039,-2.972312 -8.40039,-4.951172 -10.3418,-6.20152 -35.09397,-18.162751 -47.59961,-23.001954 -6.6,-2.553944 -12.9,-5.010607 -14,-5.458984 -14.19853,-5.78754 -49.48207,-14.553586 -71.7539,-17.8261718 -22.25298,-3.2698169 -47.22424,-4.7956138 -69.31836,-4.375 z m 10.67187,2.7871094 c 28.27735,-0.021923 35.56252,0.4565449 55.19922,3.6269532 7.86628,1.2700362 26.49201,4.8725682 32.80078,6.3437502 10.30731,2.403624 17.25637,4.268701 17.59961,4.724609 0.22,0.292212 1.12,0.582041 2,0.644531 3.46375,0.245974 29.48573,9.06107 34.68555,11.75 1.33992,0.692903 2.83612,1.259766 3.32617,1.259766 0.49004,0 2.85883,0.9 5.26367,2 2.40485,1.1 4.57522,2 4.82227,2 0.72258,0 27.84585,13.673062 28.29492,14.263672 0.22449,0.29525 2.56703,1.611348 5.20703,2.923828 2.64,1.31247 5.70078,2.970547 6.80078,3.685547 23.7614,15.4448 34.80156,23.238302 45.11914,31.851562 12.56914,10.492886 26.73476,24.177406 37.32422,36.056646 3.71657,4.1692 7.21288,8.07106 7.76953,8.66992 0.55666,0.59885 1.99588,2.40762 3.19922,4.01953 1.20335,1.61191 2.66621,3.43556 3.25196,4.05273 8.41073,8.86202 30.13824,42.87867 38.11718,59.67774 1.67187,3.52 3.90979,8.20039 4.97266,10.40039 5.01976,10.39029 13.09447,32.3384 16.92383,46 8.86409,31.62354 12.45881,57.71589 12.28906,89.19922 -0.20653,38.30404 -5.50526,69.82375 -17.75195,105.59961 -6.54205,19.11107 -17.31559,43.73115 -23.63086,54 -0.94709,1.54 -3.65025,6.04 -6.00586,10 -19.4961,32.77486 -44.03046,61.88591 -73.1875,86.83984 -4.39519,3.76161 -9.60985,8.07109 -11.58985,9.57812 -1.98,1.50703 -3.78,2.93074 -4,3.16211 -0.22,0.23137 -1.66117,1.30438 -3.20117,2.38477 -1.54,1.08039 -3.15961,2.25617 -3.59961,2.61328 -5.5821,4.53058 -18.27428,12.92466 -32.40039,21.42969 -5.86132,3.52897 -17.38271,9.59179 -18.22851,9.59179 -0.86181,0 -1.20933,-0.9505 -3.35547,-9.19921 -3.13363,-12.04418 -4.16989,-15.53675 -7.35938,-24.80079 -2.6648,-7.73999 -3.4029,-11.1496 -3.80468,-17.5996 -0.66217,-10.62999 0.96575,-26.05146 3.66992,-34.77735 0.20088,-0.6482 5.12746,8.3518 10.94726,20 17.82565,35.67765 20.75505,38.9243 33.23242,36.83399 3.35434,-0.56194 6.73323,-1.35904 7.50782,-1.77149 2.21042,-1.17696 8.36557,-14.22812 9.4082,-19.94922 1.06813,-5.86105 0.46272,-13.48738 -1.34766,-16.98828 -1.14494,-2.21406 -1.43781,-2.32565 -4.94336,-1.9082 -8.18092,0.97421 -9.41135,2.43753 -11.23828,13.36133 -0.5519,3.3 -1.36032,7.15547 -1.79687,8.56836 l -0.79492,2.56836 -2.16602,-2.56836 c -9.36356,-11.1012 -17.93123,-28.92291 -25.32812,-52.68946 -1.59559,-5.12673 -3.98222,-11.02796 -5.30469,-13.11328 l -2.4043,-3.79101 -5.98633,0.50586 c -3.29224,0.2783 -6.68817,0.88223 -7.54687,1.34179 -2.94853,1.57801 -7.95899,14.66547 -7.95899,20.78906 0,3.10168 -1.27115,0.82175 -2.68359,-4.8125 -3.77259,-15.04893 -6.27162,-24.0529 -9.09375,-32.77929 -1.06377,-3.28928 -2.26609,-7.74065 -2.67383,-9.89063 -0.70259,-3.70474 -0.60699,-4.08136 1.83399,-7.21875 1.41659,-1.82073 2.76472,-3.49093 2.99609,-3.71093 0.23137,-0.22 0.7807,-0.98076 1.2207,-1.69141 0.44,-0.71065 2.14883,-3.32853 3.79883,-5.81641 1.65,-2.48789 3,-4.87518 3,-5.30664 0,-0.43145 0.36078,-0.78515 0.80078,-0.78515 0.44,0 0.80078,-0.3441 0.80078,-0.76563 0,-1.06069 8.02811,-17.32087 10.48438,-21.23437 2.27229,-3.62041 5.45101,-10.81192 6.36523,-14.40039 0.33629,-1.32 1.38566,-4.37883 2.33204,-6.79883 0.94632,-2.42 2.91719,-8.4018 4.38085,-13.29102 1.46366,-4.88922 3.05991,-9.63085 3.54493,-10.53711 2.52124,-4.71098 7.52909,-21.01099 8.90234,-28.97265 1.41027,-8.17622 2.38867,-8.77448 2.38867,-1.45899 0,6.36105 1.05531,8.54632 3.64453,7.55274 1.26624,-0.4859 8.09384,-14.28768 11.52344,-23.29297 3.34301,-8.77791 5.38833,-14.36896 6.39648,-17.48242 1.36744,-4.22289 2.37964,-19.0426 1.38868,-20.33789 -1.74145,-2.27626 0.40861,-1.79734 4.09961,0.9121 2.67082,1.96056 4.68876,4.35789 6.30468,7.49414 1.30708,2.53682 5.31629,10.37407 8.90821,17.41407 6.35205,12.44974 9.20565,16.77163 14.11328,21.37109 1.92406,1.80324 3.11728,2.22852 6.24609,2.22852 7.44553,0 10.65356,-1.39126 17.25195,-7.48047 3.36857,-3.1086 7.02305,-6.82023 8.12305,-8.24805 1.1,-1.42781 2.54117,-2.52269 3.20117,-2.43359 0.70396,0.095 1.15309,-0.417 1.08789,-1.23828 -0.0611,-0.77 0.25095,-1.40039 0.69336,-1.40039 0.44242,0 0.63052,0.90961 0.41797,2.02148 -0.29543,1.54546 0.13546,2.39293 1.83008,3.59961 2.45298,1.74667 3.77465,1.93409 5.57031,0.78906 1.00924,-0.64356 0.88128,-0.99014 -0.80078,-2.18164 -1.1,-0.77919 -2.23826,-1.41887 -2.53125,-1.42187 -0.72618,-0.008 -3.86719,-3.68697 -3.86719,-4.5293 0,-1.08054 1.37631,-0.7858 2.75,0.58789 0.69544,0.69547 1.02445,1.65054 0.73243,2.12305 -0.33148,0.53633 -0.15002,0.62329 0.48242,0.23242 0.55717,-0.34435 1.24264,-0.29234 1.52344,0.11523 0.28081,0.40757 1.71352,1.58209 3.18359,2.60938 2.31299,1.61633 3.29074,1.80218 7.26562,1.38672 2.52631,-0.26405 5.18739,-0.70628 5.91211,-0.98438 2.73889,-1.05101 4.71885,-5.72669 15.39063,-36.34765 2.94505,-8.45032 4.90628,-16.7683 5.94336,-25.19922 0.37887,-3.08 1.25892,-8.19302 1.95508,-11.36133 2.89094,-13.1569 3.09874,-28.84023 0.51171,-38.63867 -2.95186,-11.18034 -3.37781,-12.05768 -8.14062,-16.76172 -6.50173,-6.42151 -8.67901,-6.961 -29.50977,-7.30078 -4.18,-0.0682 -10.84078,0.25672 -14.80078,0.7207 -3.96,0.46397 -10.62433,1.22117 -14.81054,1.68359 -4.18622,0.46243 -11.26378,1.30484 -15.72657,1.87305 l -8.11328,1.0332 -1.75,-4.42382 c -0.96165,-2.43356 -2.3871,-6.04539 -3.16992,-8.0254 -0.78281,-1.97998 -2.18153,-6.11921 -3.10742,-9.19921 -1.81744,-6.0458 -7.50982,-17.74795 -12.57031,-25.84375 -7.033,-11.25142 -13.37314,-20.57717 -15.03907,-22.1211 -0.97052,-0.89945 -1.81064,-1.93181 -1.86914,-2.29492 -0.0908,-0.56418 -5.80509,-7.40413 -8.80664,-10.54297 -0.52907,-0.55325 -0.73722,-1.22957 -0.46484,-1.50195 0.27238,-0.27238 0.0579,-0.4961 -0.47656,-0.4961 -0.977,0 -4.8239,-3.91411 -4.8711,-4.95703 -0.0433,-0.95805 -14.8612,-15.42863 -16.07422,-15.69726 -0.63227,-0.14002 -1.98592,-1.30963 -3.00781,-2.59961 -1.02189,-1.28998 -2.37189,-2.3457 -3,-2.3457 -0.62811,0 -1.14258,-0.27093 -1.14258,-0.60352 0,-0.33259 -1.0818,-1.08453 -2.40429,-1.66992 -1.32249,-0.58539 -2.20159,-1.3929 -1.95313,-1.79492 0.24846,-0.40201 -0.12986,-0.73047 -0.8418,-0.73047 -0.71196,0 -1.07546,-0.35606 -0.80664,-0.79102 0.27073,-0.43803 -0.0179,-0.59743 -0.64843,-0.35547 -0.62608,0.24025 -1.35422,-0.1233 -1.61719,-0.80859 -0.26297,-0.68529 -1.02932,-1.24609 -1.70313,-1.24609 -0.67381,0 -1.22461,-0.35883 -1.22461,-0.79883 0,-0.44 -0.49967,-0.80078 -1.10937,-0.80078 -1.6599,0 -5.34496,-2.08082 -4.74609,-2.67969 0.28668,-0.28668 -0.23671,-0.51953 -1.16407,-0.51953 -0.92737,0 -1.88097,-0.31311 -2.11718,-0.69531 -0.23622,-0.3822 -1.87674,-0.926 -3.64649,-1.20899 -1.76975,-0.28299 -3.2168,-0.87184 -3.2168,-1.30664 0,-0.4348 -0.51143,-0.78906 -1.13476,-0.78906 -0.62333,0 -1.25177,-0.27157 -1.39844,-0.60157 -0.60243,-1.35545 -5.56783,-4.23227 -6.4082,-3.71289 -0.55551,0.34332 -0.68575,0.20273 -0.33594,-0.36328 0.57484,-0.93015 -0.33103,-1.22858 -2.92383,-0.96484 -0.77,0.0783 -1.40039,-0.23937 -1.40039,-0.70703 0,-0.46766 -0.87714,-0.85156 -1.95117,-0.85156 -1.07404,0 -2.17533,-0.35883 -2.44727,-0.79883 -0.27193,-0.44 -1.14905,-0.80078 -1.94921,-0.80078 -0.80015,0 -1.88607,-0.5185 -2.41211,-1.15235 -0.52605,-0.63382 -1.50745,-0.94155 -2.17969,-0.68359 -0.67224,0.25796 -1.46117,0.0811 -1.75391,-0.39258 -0.29274,-0.47366 -2.45427,-1.014854 -4.80273,-1.203124 -2.34845,-0.18827 -4.50076,-0.696587 -4.78516,-1.128907 -0.46003,-0.6993 -3.1455,-1.001223 -11.91797,-1.339843 -2.5013,-0.09655 -2.59961,-0.226444 -2.59961,-3.433594 0,-1.83352 -0.67814,-4.91276 -1.50586,-6.84375 -1.39285,-3.24939 -1.86514,-3.620319 -6.35742,-4.980469 -3.8783,-1.174254 -5.30484,-1.289831 -7.0957,-0.572265 -1.23271,0.493919 -6.38141,1.299675 -11.44141,1.791015 -5.06,0.49135 -9.40888,1.232101 -9.66406,1.644531 -0.25517,0.41242 -1.01918,0.535601 -1.69727,0.275391 -0.67806,-0.2602 -1.72919,-0.0011 -2.33593,0.574219 -0.60673,0.5753 -2.87902,2.001172 -5.04883,3.169922 -3.09034,1.66459 -4.2269,2.847224 -5.24805,5.458984 -0.71698,1.83378 -1.60082,3.277131 -1.96484,3.207031 -0.36402,-0.07011 -0.92184,0.290725 -1.23828,0.802735 -0.34369,0.5561 -3.27823,1.023483 -7.28907,1.158203 -3.69274,0.12402 -8.15406,0.281309 -9.91406,0.349609 -1.83875,0.07134 -2.78862,0.384802 -2.23242,0.738282 0.55473,0.35255 -0.46827,0.68394 -2.39844,0.77734 -1.85238,0.0897 -4.26914,0.36139 -5.36914,0.60157 -6.35702,1.38753 -9.25604,1.79294 -9.91015,1.38867 -0.40514,-0.25039 -0.48567,-0.0498 -0.17969,0.44531 0.56638,0.91642 -0.22295,1.18901 -6.31055,2.17383 -1.76,0.28472 -3.56,0.80526 -4,1.1582 -0.44,0.35294 -2.95961,1.07358 -5.59961,1.60156 -2.64,0.52798 -5.52039,1.41084 -6.40039,1.96094 -0.88,0.55011 -2.68,1.26312 -4,1.58594 -1.32,0.32283 -4.6511,1.65992 -7.40429,2.9707 -2.7532,1.31077 -5.41903,2.12839 -5.92383,1.81641 -0.51048,-0.31549 -0.70268,-0.21786 -0.43164,0.2207 0.26804,0.43369 -0.79852,1.29313 -2.3711,1.91016 -1.57258,0.61703 -5.0662,2.28828 -7.76367,3.71289 -2.69746,1.42461 -5.8043,3.04395 -6.9043,3.59765 -1.1,0.5537 -2.18039,1.21659 -2.40039,1.47461 -0.22,0.25801 -2.55922,1.69176 -5.19922,3.18555 -2.64,1.49379 -6.60078,4.07887 -8.80078,5.74414 -2.2,1.66527 -4.4328,3.02925 -4.96093,3.03125 -0.52814,0.002 -1.24775,0.48997 -1.59961,1.08594 -0.35187,0.59597 -2.07985,1.99221 -3.83985,3.10156 -1.76,1.10935 -4.12692,2.87134 -5.25976,3.91602 -1.13285,1.04468 -3.82089,3.33961 -5.97461,5.09961 -2.15372,1.76 -5.09758,4.3347 -6.54102,5.7207 -1.44344,1.386 -2.625,2.36318 -2.625,2.17187 0,-0.19131 -1.11614,0.92269 -2.48047,2.47657 -1.36433,1.55388 -2.77858,2.64097 -3.14258,2.41601 -0.364,-0.22496 -0.87077,0.25146 -1.12695,1.0586 -0.25617,0.80714 -2.79514,3.96245 -5.64258,7.01172 -2.84744,3.04922 -5.1834,5.80042 -5.1914,6.11328 -0.008,0.31286 -0.6855,1.21286 -1.50391,2 -0.81842,0.78714 -2.79686,3.16927 -4.39844,5.29296 l -2.91211,3.86133 v -6.59179 -6.58985 l -9.4375,-9.27148 c -5.18985,-5.09877 -11.19229,-11.78914 -13.33984,-14.86914 -15.92296,-22.83666 -16.7613,-23.82454 -19.88477,-23.40625 -2.0749,0.27787 -6.67244,4.43427 -6.29101,5.6875 0.11422,0.37529 -0.52482,1.31744 -1.41992,2.09375 -0.8951,0.77632 -1.62696,1.99772 -1.62696,2.71484 0,0.71713 -1.18346,2.65537 -2.6289,4.30664 -1.44544,1.65127 -3.51505,4.35105 -4.59961,5.99805 -1.08456,1.64699 -2.24227,2.997 -2.57227,3 -0.33,0.003 -0.59961,0.54508 -0.59961,1.20508 0,0.66 -0.31911,1.19922 -0.70898,1.19922 -0.38987,0 -1.28099,1.1696 -1.98047,2.5996 -0.69948,1.43003 -2.36076,3.81898 -3.69141,5.3086 -1.33066,1.48962 -2.41992,3.02001 -2.41992,3.40039 0,0.38038 -0.53922,0.69141 -1.19922,0.69141 -0.66,0 -1.20117,0.52201 -1.20117,1.16015 0,0.63814 -0.45,1.44892 -1,1.80078 -0.55,0.35186 -2.16961,2.14799 -3.59961,3.99219 -2.5374,3.27239 -2.59961,3.54666 -2.59961,11.37305 0,4.41067 0.5847,12.08174 1.29883,17.04687 1.44676,10.05894 1.44926,10.46025 1.19336,123.42774 -0.14652,64.68192 -0.88648,93.97623 -2.42187,95.73828 -0.6392,0.73356 -17.68133,5.25663 -28.47071,7.55664 -16.53619,3.52509 -23.83016,6.49301 -27.535154,11.20312 -1.41975,1.80489 -1.689847,3.06705 -1.498047,6.96875 0.21655,4.40516 0.455686,4.94504 3.173829,7.14063 1.952042,1.57676 4.169882,2.51325 6.599612,2.78711 2.01287,0.22688 3.65898,0.63542 3.6582,0.9082 -7.9e-4,0.27278 -1.60512,1.51094 -3.56641,2.75 -4.89907,3.09503 -6.832026,6.46615 -6.832028,11.91797 0,3.74777 0.459217,5.09186 3.175778,9.29492 3.59805,5.56688 6.73867,8.6228 12.20899,11.88086 2.08127,1.23958 3.77848,2.43234 3.77148,2.65234 -0.007,0.22002 -1.87568,1.66118 -4.15234,3.20118 -8.22781,5.56552 -7.86163,12.57646 0.95117,18.17187 2.44466,1.55216 4.57444,2.93671 4.73242,3.07813 0.15799,0.14142 -1.28123,1.92794 -3.19922,3.96875 -5.10166,5.42837 -5.7441,7.01505 -5.30468,13.11914 0.29828,4.14356 0.94809,6.1976 3.05664,9.66211 8.64433,14.20333 11.77264,16.41439 22.36328,15.81054 7.3127,-0.41696 12.23016,-2.07693 17.05859,-5.75976 1.47886,-1.12798 2.92442,-2.05078 3.21289,-2.05078 0.28847,0 0.52539,1.82471 0.52539,4.05468 0,5.69906 2.32821,21.18453 3.89063,25.87891 2.07626,6.23829 4.10791,7.26563 14.36719,7.26563 11.49,0 21.54652,-1.48146 32.35546,-4.76758 16.66438,-5.06629 27.00145,-10.98124 25.59571,-14.64453 -0.27636,-0.7202 -1.91519,-3.63252 -3.64063,-6.47266 -4.76529,-7.84383 -9.1433,-19.31445 -7.37109,-19.31445 0.21899,0 2.11016,1.19828 4.20117,2.66406 9.42263,6.60514 22.8441,8.2709 43.00195,5.33398 2.64,-0.38463 8.22039,-1.1052 12.40039,-1.59961 4.18,-0.4944 10.65844,-1.41547 14.39844,-2.04687 3.74,-0.6314 7.88118,-1.29161 9.20117,-1.4668 1.32,-0.17519 7.747,-1.63684 14.28321,-3.25 6.53621,-1.61316 12.00266,-2.81568 12.14648,-2.67187 0.14381,0.14382 -1.24913,2.59591 -3.0957,5.44922 -3.52544,5.44749 -4.24339,7.05428 -7.4961,16.78711 -1.90516,5.70067 -1.95663,6.31968 -1.02929,12.40039 1.15737,7.58903 2.85474,11.85048 6.27344,15.74414 4.17239,4.75208 9.66785,6.90942 36.51757,14.33007 13.56228,3.74831 20.48237,7.1668 25.29883,12.49805 4.52465,5.00825 5.15134,7.3669 3.51953,13.24024 -1.43889,5.17898 -5.68347,14.30039 -8.62695,18.54101 -6.64239,9.56956 -22.61111,19.69577 -29.13086,18.47266 -3.30936,-0.62084 -7.08812,-3.78487 -9.99414,-8.36719 -1.94484,-3.0667 -2.26219,-4.37026 -2.24219,-9.21484 0.03,-7.26764 2.37948,-15.92677 5.0918,-18.75782 1.19132,-1.24348 2.08398,-3.0971 2.08398,-4.33007 0,-2.50341 -0.91262,-2.65606 -7.20703,-1.20313 -4.92776,1.13746 -8.29046,4.60826 -12.24023,12.63086 -2.35582,4.78504 -2.55283,5.7982 -2.54883,13.19922 0.005,9.54527 1.00203,13.26925 5.00195,18.67969 3.83762,5.19091 8.45676,7.57926 15.45899,7.99218 15.00294,0.88473 31.15032,-5.62308 42.60351,-17.16796 4.22815,-4.26201 10.70142,-15.358 13.20508,-22.63477 l 0.94531,-2.74805 2.5918,2.39649 c 6.87068,6.3531 15.82295,11.80336 22.89453,13.9375 4.94406,1.49207 6.98769,1.69909 12.55078,1.27148 7.98168,-0.61352 10.32646,-1.41839 13.74805,-4.71875 2.73822,-2.64121 6.84975,-12.06196 7.76562,-17.79101 1.01917,-6.3752 3.08176,-14.80077 3.62305,-14.80079 0.30463,0 0.96525,1.37614 1.46875,3.05665 1.06345,3.54948 5.46897,8.25304 9.5332,10.18164 4.13538,1.96236 8.03672,2.26964 14.69532,1.15429 5.47478,-0.91705 6.1744,-1.26673 9.50976,-4.75781 1.98,-2.07243 4.14008,-4.57688 4.80078,-5.56445 1.16726,-1.74471 1.32323,-1.56192 5.50977,6.46679 5.24865,10.06555 9.89793,17.03914 12.49414,18.74024 1.40736,0.92214 2.83248,1.12342 5.16992,0.72851 2.56141,-0.43275 3.22656,-0.30188 3.22656,0.63868 0,0.6516 -0.54117,1.39127 -1.20117,1.64453 -0.66,0.25327 -1.19922,1.19214 -1.19922,2.08593 0,1.86875 1.60939,2.0464 7.10547,0.7793 1.92807,-0.44452 3.65306,-0.66141 3.83399,-0.48047 1.20089,1.20088 -32.88702,15.36637 -51.33985,21.33399 -9.67346,3.12837 -21.73862,6.54164 -28,7.92187 -27.54208,6.07128 -50.83345,9.2924 -75.59961,10.45508 -9.46,0.44411 -18.10117,0.75064 -19.20117,0.68164 -1.1,-0.069 -7.93922,-0.38306 -15.19922,-0.69726 -67.93589,-2.94017 -136.63072,-25.0812 -193.19922,-62.26954 -7.7008,-5.06253 -27.34263,-19.57299 -31.71679,-23.43164 -1.1639,-1.02673 -4.04429,-3.47926 -6.40039,-5.44921 -5.96705,-4.9892 -28.865563,-27.89842 -35.599612,-35.61719 -9.902153,-11.35014 -23.377762,-29.63245 -31.550782,-42.80078 -18.04948,-29.08122 -33.165192,-65.28709 -41.414062,-99.19922 -7.5919311,-31.21139 -10.6174859,-70.04075 -7.7910159,-100 1.28535,-13.62401 1.6322244,-16.17336 4.1464844,-30.40039 1.9275305,-10.90701 6.2664845,-29.12062 8.7656255,-36.80078 0.644289,-1.98 2.21601,-6.83883 3.49414,-10.79883 5.20722,-16.13339 19.693644,-49.70282 21.865234,-50.66797 0.33,-0.14667 0.59961,-0.56908 0.59961,-0.93945 0,-0.9706 8.902175,-16.50761 13.384766,-23.36133 2.098069,-3.20788 3.994343,-6.20636 4.214843,-6.66406 0.44114,-0.91578 1.110668,-1.82634 12.017578,-16.36719 4.12548,-5.5 7.701686,-10.18039 7.947266,-10.40039 0.24557,-0.22 2.424537,-2.73961 4.841797,-5.59961 2.41726,-2.86 4.755312,-5.61113 5.195312,-6.11328 4.76132,-5.43379 24.306366,-24.61017 31.199216,-30.609379 4.84,-4.2125 8.97922,-7.86513 9.19922,-8.11914 0.84601,-0.9768 20.9817,-15.976308 23.23047,-17.304688 1.30338,-0.76993 2.37109,-1.682214 2.37109,-2.027344 0,-0.34513 0.37961,-0.626953 0.84375,-0.626953 0.46415,0 2.89259,-1.39266 5.39844,-3.09375 13.16099,-8.93424 42.13844,-24.558009 56.95703,-30.710937 11.8363,-4.914634 21.21238,-8.595703 21.89649,-8.595703 0.36372,0 1.79515,-0.510157 3.18164,-1.134766 7.28142,-3.28024 32.93855,-10.393604 50.52148,-14.005859 29.15911,-5.9904806 45.98687,-7.5826954 80.40039,-7.6093754 z m 42.35352,4.6210934 c 0.38258,0.119532 0.76362,0.242354 1.14258,0.371094 0.79919,-0.03939 1.18017,-0.178602 0.70312,-0.371094 -0.50757,-0.204808 -1.29214,-0.173207 -1.8457,0 z m 6.42383,1.21875 c -0.64596,0.08591 -1.07297,0.249917 -1.2461,0.455079 0.83094,0.241979 1.664,0.47599 2.49805,0.708984 0.37141,0.09928 0.58183,0.154988 0.75586,0.201172 0.11414,-0.492427 0.31441,-0.950029 0.61328,-1.339844 -0.0345,-0.0036 -0.0233,-0.0061 -0.0586,-0.0098 -1.05166,-0.109327 -1.91655,-0.10153 -2.5625,-0.01563 z m -10.77735,0.410157 c -0.006,9.15e-4 -0.01,0.003 -0.0156,0.0039 0.0211,0.03188 0.13061,0.137522 0.17578,0.189453 0.0993,0.05016 0.20214,0.09174 0.30273,0.138672 -0.13919,-0.117595 -0.29266,-0.228548 -0.46289,-0.332031 z m 38,2.90039 c -0.3037,0 -0.41733,0.30178 -0.55273,0.552735 0.43193,0.06537 0.86528,0.12605 1.29687,0.191406 -0.046,-0.39706 -0.33526,-0.744141 -0.74414,-0.744141 z m 5.64649,0.800782 c -0.34865,0 -0.50322,0.311862 -0.63282,0.597656 0.33099,0.05626 0.66194,0.112481 0.99219,0.171875 0.24308,-0.42429 0.0944,-0.769531 -0.35937,-0.769531 z m 32.5957,8.236328 c -0.0355,-0.09159 -0.16436,0.01168 -0.38476,0.314453 -0.30974,0.425468 -1.38061,0.702145 -2.52344,0.792969 1.4384,0.562014 2.88246,1.102221 4.33984,1.605468 2.37706,-1.219039 2.45543,-1.513132 0.11524,-0.925781 -1.90654,0.47851 -2.14113,0.350501 -1.72266,-0.935547 0.15415,-0.47372 0.21129,-0.759971 0.17578,-0.851562 z m 13.08008,4.646484 c -0.18913,-0.06462 -0.4011,-0.01681 -0.58984,0.160156 -0.3775,0.353924 -0.20869,0.938102 0.375,1.298828 0.10757,0.06649 0.0711,0.159374 0.15039,0.226563 0.8686,0.28493 1.73603,0.571504 2.60742,0.847656 -0.1761,-0.571045 -0.422,-1.015397 -0.79883,-1.015625 -0.51333,-3.11e-4 -1.09459,-0.451953 -1.29102,-1.001953 -0.0982,-0.275 -0.26399,-0.451009 -0.45312,-0.515625 z M 194.21484,147.19922 c 0.81697,-0.29681 1.01224,0.1261 0.73243,1.58984 -0.24694,1.29176 0.0752,2.27885 0.91406,2.80274 0.71235,0.44486 3.50375,4.55553 6.20312,9.13476 4.78053,8.10973 7.06931,11.21529 14.76953,20.02344 l 3.73438,4.26953 -1.14453,4.39258 c -1.1772,4.52101 -2.74314,14.16977 -4.34766,26.79101 -0.50342,3.96002 -1.75891,12.96002 -2.78906,20 -2.80998,19.20322 -4.23939,30.6334 -5.60547,44.80079 -1.12657,11.68335 -6.36003,50.34695 -7.20117,53.19921 -1.24843,4.23339 -5.55031,51.92138 -6.4375,71.36329 l -0.50195,10.96289 -3.71875,0.52734 c -2.04601,0.2896 -8.35856,1.38674 -14.02735,2.4375 -5.66879,1.05076 -10.61879,1.91016 -11,1.91016 -0.6065,0 -1.06517,-2.45785 -0.78515,-4.20703 0.14561,-0.90957 0.72829,-11.56333 1.33398,-24.39258 0.29602,-6.27 0.84594,-11.40039 1.22266,-11.40039 0.37672,0 0.47787,-0.54117 0.22461,-1.20118 -0.26909,-0.70121 -0.009,-1.20393 0.625,-1.21093 0.8912,-0.0101 0.88554,-0.14014 -0.0312,-0.72071 -0.78629,-0.49787 -1.17939,-2.76588 -1.32813,-7.6621 -0.20089,-6.61307 -0.13245,-6.93346 1.39063,-6.53516 1.5094,0.39471 1.52419,0.33406 0.26562,-1.05664 -0.95033,-1.05011 -1.43142,-3.39983 -1.66797,-8.14453 -0.3693,-7.4075 0.31586,-9.64728 2.41602,-7.9043 0.70417,0.58451 1.49744,0.84434 1.76367,0.57813 0.26623,-0.26624 -0.46228,-0.91431 -1.61914,-1.44141 -2.06472,-0.94075 -2.34369,-1.76491 -2.40039,-7.10156 -0.0215,-2.02426 0.34195,-2.16722 2.93554,-1.15821 0.93081,0.36212 0.62574,-0.25316 -0.86328,-1.74218 l -2.30078,-2.30274 0.24219,-13.19922 c 0.13321,-7.25919 0.25022,-13.91687 0.26172,-14.79687 0.0115,-0.88 0.2106,-2.41827 0.44141,-3.41797 0.35042,-1.51794 0.6758,-1.68129 1.9707,-0.98828 0.8528,0.4564 1.37134,1.29647 1.15234,1.86718 -0.21899,0.57072 0.51221,1.52647 1.62696,2.12305 3.62182,1.93834 3.32362,-0.0698 -0.51563,-3.46875 -3.5498,-3.14271 -3.75251,-3.54666 -3.87891,-7.7168 -0.31722,-10.4658 0.15422,-47.19921 0.60547,-47.19921 0.27264,0 2.5029,1.73798 4.95703,3.86328 6.26919,5.42917 10.44199,7.80234 5.26172,2.99219 -2.2,-2.04284 -5.49116,-4.81526 -7.31445,-6.16016 l -3.31445,-2.44531 0.25976,-16.125 c 0.14301,-8.86896 0.28415,-16.22819 0.31446,-16.35352 0.0303,-0.12534 1.76546,1.42887 3.85546,3.45313 4.97072,4.81438 6.25586,5.52613 6.25586,3.46093 0,-0.87307 -2.13122,-3.81516 -4.73632,-6.53711 -2.60515,-2.72194 -4.23898,-4.22765 -3.63086,-3.34765 0.60813,0.88 2.61536,3.21064 4.46093,5.17969 1.84557,1.96905 3.21614,3.71939 3.04493,3.89062 -0.17125,0.17123 -2.45674,-1.55396 -5.07813,-3.83398 -4.75914,-4.13937 -4.7664,-4.15416 -5.24805,-9.49219 -0.51166,-5.67049 -0.49151,-12.14453 0.0371,-12.14453 0.17433,0 1.36123,1.16992 2.63867,2.59961 1.27743,1.4297 2.54871,2.37316 2.82422,2.09765 0.27551,-0.27551 -0.95523,-1.97056 -2.73437,-3.76758 -3.61232,-3.64859 -4.47604,-6.35216 -1.03516,-3.24023 4.78805,4.33032 5.19652,4.07541 1.11328,-0.69727 -2.35647,-2.75434 -3.69608,-4.78194 -2.97656,-4.50586 0.71952,0.27612 1.66761,1.17014 2.10547,1.98829 0.43786,0.81815 1.53428,1.88379 2.4375,2.36718 1.45162,0.77689 1.55239,0.70901 0.86133,-0.58203 -0.42999,-0.80331 -2.06667,-2.63 -3.63672,-4.05859 -1.57004,-1.4286 -2.68042,-3.04821 -2.4668,-3.59961 0.35168,-0.90777 3.10646,-2.89357 6.92578,-4.99219 0.79046,-0.43434 1.4375,-1.06904 1.4375,-1.41211 0,-0.34307 1.61961,-2.17705 3.59961,-4.07422 1.98,-1.89718 3.59961,-3.70553 3.59961,-4.01953 0,-0.31399 0.35218,-1.00568 0.78125,-1.53711 0.42907,-0.53143 1.60379,-1.98443 2.61133,-3.22851 l 1.83203,-2.26172 3.09766,2.46094 c 2.8657,2.27737 4.47851,3.02477 4.47851,2.07421 0,-0.21375 -1.43922,-1.34113 -3.19922,-2.50585 -1.83463,-1.21409 -3.20117,-2.75496 -3.20117,-3.61133 0,-1.88666 1.17451,-1.89466 3.87696,-0.0254 1.16792,0.80785 2.66421,1.73681 3.32421,2.06445 1.52383,0.75647 -2.73589,-3.1941 -4.52148,-4.19336 -1.21149,-0.67799 -1.17541,-0.95848 0.39648,-3.16602 0.94853,-1.33206 1.72461,-2.8148 1.72461,-3.29687 0,-0.48208 0.35883,-0.87695 0.79883,-0.87695 0.44,0 0.71156,-0.40539 0.60156,-0.90039 -0.11,-0.495 0.29984,-1.08227 0.91211,-1.30469 z m -12.56836,22.46289 c -0.65865,0.079 0.41369,1.54227 2.45508,2.84961 1.43,0.9158 2.74563,1.67073 2.92383,1.67773 0.65635,0.0273 -2.75219,-3.35842 -4.11523,-4.08789 -0.63236,-0.33842 -1.04412,-0.46577 -1.26368,-0.43945 z m -4.09765,2.31836 c -0.58693,0.0747 1.07087,1.80384 3.92383,3.82422 2.17462,1.54 3.97158,3.06845 3.99218,3.39843 0.0206,0.33001 0.48711,0.58636 1.03711,0.56836 1.0481,-0.0344 -5.12497,-5.94973 -7.58007,-7.26367 -0.7337,-0.39266 -1.17741,-0.55226 -1.37305,-0.52734 z m -3.07617,4.98437 c -0.43454,0.43453 1.10043,1.95782 3.83007,3.80274 3.1874,2.1543 3.05286,1.5941 -0.33398,-1.39649 -1.72332,-1.5217 -3.29703,-2.60531 -3.49609,-2.40625 z m -6.17383,25.62891 c -0.15769,-0.0535 -0.006,0.21978 0.42773,0.81055 0.64668,0.88 1.53461,1.86424 1.97461,2.1875 0.44,0.32327 0.89,0.59261 1,0.59961 0.57811,0.0354 -0.0165,-0.70188 -1.97461,-2.44727 -0.80336,-0.71609 -1.27004,-1.09686 -1.42773,-1.15039 z m 219.80664,8.41016 h 2.78515 c 2.66254,0 2.75679,0.0959 2.13477,2.19921 -0.89586,3.02915 -0.88793,14.64481 0.0117,16.60157 0.72592,1.57883 0.71269,1.5781 -1,0.0742 -0.95461,-0.83819 -1.76413,-2.4578 -1.79883,-3.59961 -0.0347,-1.1418 -0.25153,-1.60425 -0.48242,-1.02735 -0.33075,0.82637 -0.72058,0.77678 -1.83789,-0.23437 -1.30423,-1.18034 -1.45972,-1.17248 -1.94336,0.0879 -0.44658,1.16378 -1.00484,0.90248 -3.69922,-1.72852 -1.74512,-1.70406 -3.17383,-3.56406 -3.17383,-4.13476 0,-0.57071 -0.45,-1.06285 -1,-1.09375 -0.55,-0.0309 -0.28039,-0.36599 0.59961,-0.74414 1.38936,-0.59703 1.29373,-0.69534 -0.73242,-0.74414 -1.28333,-0.0309 -2.06439,-0.32625 -1.73437,-0.65625 0.63058,-0.63059 1.06727,-0.73784 3.66796,-0.90039 0.88,-0.055 1.59934,-0.36922 1.59961,-0.69922 2.7e-4,-0.32995 -1.84846,-0.47297 -4.10937,-0.31641 -2.75393,0.19069 -3.74379,0.51725 -3,0.98828 0.76756,0.48608 0.24433,0.72419 -1.69141,0.77149 -2.29773,0.0562 -2.51221,0.19165 -1.19922,0.75586 1.52669,0.65608 1.5183,0.69044 -0.19922,0.74414 -1.04006,0.0325 -1.80078,-0.41826 -1.80078,-1.06836 0,-0.72915 -0.56074,-0.97861 -1.59179,-0.70899 -0.87505,0.22883 -1.4252,0.6813 -1.22461,1.00586 0.20059,0.32457 -3.13462,0.82234 -7.41016,1.10547 -11.06944,0.73305 -14.75354,0.66066 -14.17383,-0.27734 0.27194,-0.44 0.11441,-0.80078 -0.35156,-0.80078 -0.46597,0 -0.84766,0.40321 -0.84766,0.89453 0,0.50774 -0.71112,0.70749 -1.64648,0.46289 -1.28618,-0.33635 -1.4551,-0.20337 -0.77734,0.61328 0.66769,0.80452 0.37265,1.16937 -1.2793,1.58398 -1.40229,0.35195 -2.37484,0.17607 -2.8086,-0.50781 -0.52368,-0.82574 -0.67842,-0.79264 -0.73242,0.1543 -0.0461,0.80839 -0.29269,0.67747 -0.75586,-0.40039 -0.6117,-1.42352 -0.69414,-1.36079 -0.74414,0.57422 -0.0405,1.56819 0.26278,2.0522 1.08594,1.73632 0.8188,-0.31419 1.02497,0.007 0.73047,1.13282 -0.23251,0.88912 -0.98854,1.48776 -1.74219,1.3789 -0.73205,-0.10573 -0.91695,-0.0456 -0.41211,0.13477 1.13014,0.40388 1.92501,3.19891 1.3418,4.71875 -0.23698,0.61756 -1.02316,1.12972 -1.74609,1.13672 -1.1024,0.0103 -1.12776,0.12997 -0.16016,0.74218 0.63453,0.40147 1.59109,2.20932 2.125,4.01758 0.93037,3.15096 0.90072,3.26475 -0.67188,2.76563 -1.4302,-0.45393 -1.49652,-0.36533 -0.52343,0.68554 1.18052,1.27489 3.91601,0.50666 3.91601,-1.09961 0,-0.45045 -0.35883,-0.59614 -0.79883,-0.32421 -0.6769,0.41836 -1.19874,-2.24895 -0.60156,-3.07618 0.11,-0.15237 -0.29261,-0.87393 -0.89648,-1.60156 -0.71324,-0.85939 -0.78448,-1.32226 -0.20117,-1.32226 0.49387,0 0.93546,-0.63039 0.98046,-1.40039 0.045,-0.77 0.37053,-0.32 0.72461,1 2.7005,10.06748 4.38155,14.75733 6.0918,17 3.19388,4.18819 4.69006,3.43487 4.36328,-2.19922 -0.0896,-1.54444 0.25497,-1.2067 1.51172,1.48632 0.89509,1.91805 1.62695,3.5741 1.62695,3.67969 0,0.21621 -14.09268,1.39485 -18.40039,1.53907 -1.54,0.0516 -3.00027,0.36086 -3.24414,0.6875 -0.24388,0.3266 -2.07538,0.81836 -4.07031,1.09179 l -3.62695,0.49805 -0.88086,-3.49219 c -4.8022,-19.04144 -4.87045,-19.3975 -4.00977,-21.03711 1.92353,-3.66436 10.30427,-9.99025 16.86719,-12.73242 3.76813,-1.57442 12.19403,-2.74123 26.9043,-3.72266 6.41311,-0.42786 14.05976,-0.99494 16.99218,-1.26172 l 5.33203,-0.48632 -0.7539,3.35351 c -0.86793,3.86286 -0.17874,8.79688 1.22851,8.79688 0.54575,0 1.5864,-2.76247 2.41211,-6.40039 z m 10.11328,0 c 2.83372,0 10.68921,3.00199 13.76758,5.26171 5.21244,3.82628 11.1161,10.53184 11.11523,12.625 -3.9e-4,0.94765 -1.43183,3.1 -3.20117,4.81641 -1.75961,1.70697 -3.19922,3.45662 -3.19922,3.88672 0,0.4301 -0.55737,0.56672 -1.24023,0.30469 -0.80193,-0.30773 -1.04188,-0.15366 -0.67774,0.43554 0.31008,0.50171 -0.0123,1.33202 -0.71484,1.84571 -0.70252,0.5137 -2.31337,3.16447 -3.58008,5.88867 -1.26672,2.72421 -2.60412,4.6784 -2.97266,4.34375 -0.36855,-0.33465 -0.41037,-0.15493 -0.0918,0.39844 0.3186,0.55338 0.0433,1.5426 -0.61328,2.19922 -1.30848,1.30849 -2.32992,1.50406 -3.2168,0.61718 -0.31678,-0.31678 -1.18704,-0.60226 -1.93359,-0.63476 -4.71142,-0.20538 -9.71604,-1.52351 -10.15821,-2.67578 -0.273,-0.71143 -0.7083,-3.57414 -0.96875,-6.36329 -0.56454,-6.04554 -2.32961,-8.86215 -4.69336,-7.49023 -0.8459,0.49094 -1.26364,0.90262 -0.92773,0.91602 0.3359,0.0134 0.0663,1.32814 -0.59961,2.92187 -0.66591,1.59374 -1.21094,4.1362 -1.21094,5.64844 0,1.62929 -0.32477,2.54691 -0.79883,2.2539 -0.44,-0.2719 -0.80078,-3.17323 -0.80078,-6.44726 0,-5.28055 -0.16963,-5.95117 -1.49609,-5.95117 -1.70066,0 -2.47944,3.18899 -2.49414,10.19922 l -0.01,4.19921 h -4.46679 -4.46875 l 0.57031,-8.79882 c 0.49586,-7.65072 0.40911,-8.80078 -0.66602,-8.80078 -1.54979,0 -2.96875,6.15493 -2.96875,12.875 v 4.79687 l -5.96093,-0.19141 -5.95899,-0.18945 -1.93555,-4.44531 c -1.06415,-2.44487 -2.15013,-5.0757 -2.41406,-5.8457 -0.26392,-0.77 -1.05811,-1.4004 -1.76367,-1.4004 -1.07941,0 -1.21218,0.73101 -0.8418,4.60157 l 0.43946,4.59961 -1.53516,-2.8711 c -1.60893,-3.00846 -4.04755,-12.38161 -4.00195,-15.3789 l 0.0254,-1.75 1.57031,1.88281 c 0.863,1.03583 1.33445,2.26246 1.04883,2.72461 -0.30338,0.49087 -0.13524,0.60104 0.40429,0.26758 0.54729,-0.33824 0.92383,-0.0613 0.92383,0.67773 0,0.68597 0.3258,1.24609 0.72461,1.24609 0.39885,0 0.53759,-0.80882 0.3086,-1.79882 l -0.41602,-1.80078 1.39844,1.88671 c 0.7985,1.07816 1.07519,2.10734 0.64648,2.40039 -1.15607,0.79029 1.50364,2.92583 3.51758,2.82422 0.9785,-0.0494 1.61027,0.18236 1.4043,0.51563 -0.20597,0.33327 0.16284,0.81215 0.82031,1.06445 1.36734,0.5247 1.61299,2.63552 0.35547,3.05469 -0.53787,0.17929 -0.37994,1.28373 0.43945,3.06836 1.18777,2.58698 1.24384,2.61733 0.78906,0.44531 -0.43329,-2.06935 -0.34168,-2.21711 0.78125,-1.28516 0.6983,0.57951 1.50051,0.82178 1.78321,0.53907 0.2827,-0.2827 0.0252,-0.51367 -0.57227,-0.51367 -0.72269,0 -0.59276,-0.36049 0.38867,-1.07813 0.9288,-0.67917 1.23673,-1.46508 0.83008,-2.12305 -0.41416,-0.67011 -0.33272,-0.85077 0.22852,-0.5039 0.5027,0.31068 0.89979,-0.0629 0.93359,-0.87696 0.21873,-5.27543 0.57293,-6.92741 1.55078,-7.2539 0.6252,-0.20873 0.88593,-0.009 0.59766,0.45703 -0.31832,0.51505 0.11966,0.6656 1.15625,0.39453 0.91784,-0.24003 1.84155,-0.88718 2.05273,-1.4375 0.2207,-0.57517 1.09669,-0.81404 2.0586,-0.5625 1.08538,0.28383 1.4838,0.13117 1.13476,-0.43359 -0.29598,-0.47891 -0.17178,-1.09668 0.27539,-1.37305 0.44718,-0.27637 0.8125,-0.12222 0.8125,0.34375 0,0.46597 0.51614,0.84766 1.14649,0.84766 1.22049,0 2.49375,2.80692 2.17773,4.80078 -0.15353,0.96863 -0.0512,0.99133 0.53711,0.12109 0.60667,-0.89738 0.91004,-0.88552 1.80469,0.0723 0.93176,0.99746 1.27716,0.96043 2.60156,-0.27344 1.03035,-0.95991 2.3804,-1.31375 4.14453,-1.08789 1.4387,0.1842 4.5812,0.41702 6.98438,0.51758 2.40317,0.10056 4.36633,0.55742 4.36133,1.01562 -0.0495,4.42592 0.33105,6.33599 1.04296,5.23438 0.66274,-1.02551 0.77661,-0.99721 0.78711,0.19922 0.007,0.77 -0.43828,1.40511 -0.98828,1.4121 -0.77851,0.01 -0.77236,0.15671 0.0274,0.66407 0.60104,0.38137 0.79926,1.24423 0.47851,2.08008 -0.4591,1.19641 -0.25201,1.33572 1.27344,0.85156 1.23075,-0.39063 1.64614,-0.29549 1.28125,0.29492 -0.36761,0.5948 0.23937,0.71697 1.90039,0.38477 1.91895,-0.38379 2.43945,-0.20998 2.43945,0.8125 0,1.5461 0.35273,1.59539 2.63672,0.37304 2.55159,-1.36558 4.14451,-3.07226 2.86719,-3.07226 -0.60673,0 -0.44623,-0.41219 0.40039,-1.03125 0.77516,-0.56681 1.2934,-1.55603 1.15234,-2.19922 -0.16172,-0.73741 0.25979,-1.08377 1.14258,-0.93555 1.37693,0.23119 1.7665,-0.86438 1.43945,-4.05273 -0.08,-0.77977 0.1485,-1.36659 0.50782,-1.30469 1.5867,0.27324 2.65429,-0.15151 2.65429,-1.05664 0,-1.13886 5.49171,-6.2207 6.72266,-6.2207 0.45798,0 0.0326,-0.55922 -0.94531,-1.24414 -0.9779,-0.68496 -1.77735,-1.73233 -1.77735,-2.32618 0,-0.68537 -0.65825,-0.95808 -1.80078,-0.74609 -0.99,0.18369 -1.35078,0.12091 -0.80078,-0.14063 1.31759,-0.62654 1.28451,-1.94336 -0.0488,-1.94336 -1.55424,3e-5 -4.66786,-3.16281 -4.06836,-4.13281 0.33436,-0.54101 -0.0906,-0.6435 -1.20117,-0.29101 -1.20894,0.3837 -1.65468,0.2295 -1.5,-0.51563 0.13661,-0.65814 -0.37144,-0.95735 -1.33789,-0.78906 -1.22152,0.21271 -1.3654,0.0415 -0.66797,-0.79883 0.72177,-0.86969 0.16185,-1.07226 -2.97656,-1.07226 -2.12592,0 -3.83789,0.18039 -3.80469,0.40039 0.0332,0.22 -0.22703,1.06029 -0.57812,1.86718 -0.50228,1.15438 -0.7822,1.24003 -1.31446,0.40039 -0.51801,-0.81718 -0.68045,-0.7401 -0.68945,0.33204 -0.007,0.77 0.34906,1.40039 0.78906,1.40039 0.44,0 0.79883,1.8209 0.79883,4.04687 0,2.49442 -0.30576,3.85748 -0.79883,3.55274 -0.46673,-0.28846 -0.80078,0.52536 -0.80078,1.95312 0,3.27556 -1.28036,3.12446 -1.82226,-0.21484 -0.76449,-4.71103 1.08439,-17.33789 2.53906,-17.33789 z M 360.11719,215.25 c -0.77837,0.20284 -0.33563,0.38214 0.98437,0.39844 1.32003,0.0163 1.95765,-0.15 1.41602,-0.36914 -0.54163,-0.21909 -1.62202,-0.23213 -2.40039,-0.0293 z m -6.40039,1.59961 c -0.77837,0.20284 -0.33563,0.38214 0.98437,0.39844 1.32003,0.0163 1.95765,-0.15 1.41602,-0.36914 -0.54163,-0.21909 -1.62202,-0.23213 -2.40039,-0.0293 z m -185.41407,2.63281 3.56641,3.76172 c 1.96162,2.06836 3.65886,3.75977 3.77344,3.75977 0.82456,0 -1.2502,-2.4553 -4.02149,-4.75977 z m 164.62305,0.625 c -0.0841,0.0841 -0.14095,0.3641 -0.16016,0.83008 -0.0347,0.84333 0.15409,1.31466 0.41993,1.04883 0.26587,-0.26584 0.29359,-0.95571 0.0625,-1.53321 -0.1277,-0.31908 -0.23816,-0.42981 -0.32227,-0.3457 z m 55.3418,0.76367 c -0.7357,0 -1.05969,0.45616 -0.80078,1.13086 0.23893,0.62265 0.46128,1.5524 0.49218,2.06641 0.0309,0.51402 0.36404,0.21594 0.74219,-0.66406 0.98487,-2.29191 0.9443,-2.53321 -0.43359,-2.53321 z m 9.51953,0.45313 c -0.0722,0.17849 -0.12076,0.6193 -0.12891,1.2793 -0.0163,1.32003 0.15,1.95764 0.36914,1.41601 0.21919,-0.54163 0.23213,-1.62202 0.0293,-2.40039 -0.10142,-0.38918 -0.19731,-0.47341 -0.26953,-0.29492 z m -67.04883,0.0801 c -2.14691,0 -3.73329,1.96805 -2.58594,3.20898 0.73579,0.79576 0.72491,0.89886 -0.0508,0.46094 -0.76096,-0.42962 -1,0.85738 -1,5.38476 0,6.76992 1.4765,11.20797 4.65625,13.9961 2.87709,2.52274 3.05616,1.09992 0.48242,-3.82227 -1.91798,-3.66806 -2.09555,-4.68335 -1.66796,-9.46875 0.26342,-2.94812 0.71261,-6.35054 0.99804,-7.56054 0.40953,-1.73608 0.23362,-2.19922 -0.83203,-2.19922 z m 7.96289,2.10937 c 0.66,0.25327 1.20117,1.14364 1.20117,1.97656 0,0.83293 -0.54117,1.51368 -1.20117,1.51368 -0.74259,0 -1.19922,-0.75248 -1.19922,-1.97461 0,-1.42681 0.33227,-1.84831 1.19922,-1.51563 z m -169.59961,2.29102 1.93946,2.19922 c 1.0667,1.21 2.05787,2.19921 2.20117,2.19921 0.62742,3e-5 0.11677,-0.64628 -1.93946,-2.45898 z m 219.82422,2.30273 c 0.0841,-0.0841 0.19458,0.0266 0.32227,0.3457 0.23105,0.57751 0.20333,1.26737 -0.0625,1.53321 -0.26584,0.26583 -0.4546,-0.2055 -0.41993,-1.04883 0.0192,-0.46598 0.0761,-0.74597 0.16016,-0.83008 z m -13.77734,2.89649 c 0.46596,0 0.62545,0.36078 0.35351,0.80078 -0.27193,0.44 -0.65362,0.79883 -0.84765,0.79883 -0.19403,0 -0.35157,-0.35883 -0.35157,-0.79883 0,-0.44 0.37974,-0.80078 0.84571,-0.80078 z m 2.4375,0.004 c 0.0367,-0.10647 0.36505,-0.003 1.00781,0.24414 0.79157,0.30376 1.58943,0.55274 1.77344,0.55274 0.18402,0 0.33398,0.35883 0.33398,0.79883 0,1.177 -1.03655,0.92303 -2.37305,-0.58204 -0.52422,-0.59034 -0.7789,-0.9072 -0.74218,-1.01367 z m 9.36523,0.25 c 0.5775,-0.23105 1.26736,-0.20333 1.53321,0.0625 0.26582,0.26583 -0.2055,0.45462 -1.04883,0.41992 -0.93196,-0.0384 -1.12256,-0.22704 -0.48438,-0.48242 z m -3.04883,0.14649 c 0.44,-0.27193 0.79883,0.066 0.79883,0.75195 0,0.68597 -0.35883,1.24805 -0.79883,1.24805 -0.44,0 -0.80078,-0.33988 -0.80078,-0.75391 0,-0.41403 0.36078,-0.97415 0.80078,-1.24609 z m 34.92578,0.6582 c -0.72901,-0.72902 -3.72656,2.14601 -3.72656,3.57422 0,0.81143 0.66871,0.51684 2.1211,-0.93555 1.16666,-1.16666 1.88944,-2.3547 1.60546,-2.63867 z m -31.72656,0.54102 c 0.44,0 0.80078,0.36078 0.80078,0.80078 0,0.44 -0.36078,0.79884 -0.80078,0.79882 -0.44,3e-5 -0.79883,-0.35882 -0.79883,-0.79882 0,-0.44 0.35883,-0.80078 0.79883,-0.80078 z m -10.84765,0.41406 c 0.2175,-0.057 0.51765,-0.029 0.84765,0.0976 0.66,0.25327 1.20117,0.60051 1.20117,0.77344 0,0.17292 -0.54117,0.31445 -1.20117,0.31445 -0.66,3e-5 -1.19922,-0.34724 -1.19922,-0.77343 0,-0.2131 0.13407,-0.35513 0.35157,-0.41211 z m -12.92774,2.28906 c -0.0841,0.0841 -0.14095,0.3641 -0.16015,0.83008 h -0.002 c -0.0347,0.84333 0.15604,1.31661 0.42188,1.05078 0.26587,-0.26584 0.29359,-0.9557 0.0625,-1.5332 -0.1277,-0.31909 -0.23816,-0.43177 -0.32227,-0.34766 z m -38.05469,1.52539 c -0.12656,-0.0358 -0.31719,0.0154 -0.57031,0.17188 -0.44,0.27194 -0.79411,1.10362 -0.78711,1.84765 0.0106,1.16582 0.1188,1.1865 0.78711,0.15235 0.75936,-1.17502 0.94999,-2.06457 0.57031,-2.17188 z m 49.03125,0.57227 c -0.44,0 -0.80078,0.56012 -0.80078,1.24609 0,0.68598 0.36078,1.02585 0.80078,0.75391 0.44,-0.27193 0.79883,-0.83402 0.79883,-1.24805 0,-0.41403 -0.35883,-0.75195 -0.79883,-0.75195 z m -40.04882,2.40039 c -0.46597,0 -0.6235,0.35883 -0.35157,0.79883 0.27194,0.44 0.65363,0.80078 0.84766,0.80078 0.19403,0 0.35156,-0.36078 0.35156,-0.80078 0,-0.44 -0.38168,-0.79883 -0.84765,-0.79883 z m 4.35547,1.59961 c -0.16868,0 -0.30193,1.16961 -0.29493,2.59961 0.008,1.76772 0.23225,2.25182 0.70117,1.51171 0.62904,-0.99279 0.32119,-4.11132 -0.40624,-4.11132 z m -1.6836,3.50195 c -0.0841,0.0841 -0.14095,0.3641 -0.16016,0.83008 -0.0347,0.84333 0.15409,1.31661 0.41993,1.05078 0.26587,-0.26584 0.29359,-0.9557 0.0625,-1.5332 -0.1277,-0.31909 -0.23816,-0.43177 -0.32227,-0.34766 z m 50.26758,0.49805 c 0.39006,0 0.70898,1.25885 0.70898,2.79882 0,2.53336 -0.66893,3.46387 -1.72851,2.4043 -0.64492,-0.64492 0.24827,-5.20312 1.01953,-5.20312 z m -55.68164,1.97851 c -0.13423,0.0561 -0.14386,0.20295 -0.004,0.42969 0.26882,0.43496 0.82816,0.79102 1.24219,0.79102 1.15074,0 0.89571,-0.57364 -0.49023,-1.10547 -0.35599,-0.1366 -0.61382,-0.1713 -0.74805,-0.11524 z m 71.18945,2.84571 c -0.44,0 -1.34,0.34887 -2,0.77539 -0.66,0.42653 -0.83844,0.77539 -0.39844,0.77539 0.44,0 1.34,-0.34886 2,-0.77539 0.66,-0.42652 0.83844,-0.77539 0.39844,-0.77539 z m -233.09765,8.89257 c -0.24627,-0.13544 -0.15277,0.081 0.3164,0.66993 0.87062,1.09281 2.12125,2.4314 2.78125,2.9746 0.66,0.54319 1.29039,0.99968 1.40039,1.01368 0.60445,0.0769 -0.10183,-0.74055 -2.7832,-3.21875 -0.88412,-0.81714 -1.46858,-1.30401 -1.71484,-1.43946 z m -1.30079,14.8125 3.56641,3.73633 c 3.77145,3.94937 4.0332,4.14632 4.0332,3.03125 0,-0.38699 -1.71078,-2.06917 -3.80078,-3.73633 z m 46.81836,27.47071 c 0.52326,-0.19783 1.18087,0.44904 2.16602,1.59961 0.75348,0.88 1.74115,1.60919 2.19336,1.62109 0.45221,0.0119 2.586,1.59148 4.74219,3.50977 2.77099,2.46526 3.76951,3.87874 3.4082,4.82031 -0.29288,0.76322 -0.18112,1.12796 0.25976,0.85547 0.42325,-0.26158 1.39846,0.26142 2.16797,1.16015 0.76951,0.89872 1.88057,1.63282 2.46875,1.63282 0.58822,0 0.88104,0.3038 0.65235,0.67382 -0.54218,0.87728 3.7427,4.04649 8.42383,6.23243 5.25652,2.45463 5.31377,3.20695 0.27929,3.72656 -3.87613,0.40005 -7.82136,2.39316 -6.14258,3.10351 1.06436,0.45037 4.34733,9.68167 4.7168,13.26368 0.1929,1.87 0.23674,3.38679 0.0977,3.37109 -0.53868,-0.0606 -4.65235,-9.54183 -4.65235,-10.72266 0,-0.68654 -0.2883,-1.24804 -0.64062,-1.24804 -0.35232,0 -1.43346,-1.63268 -2.40234,-3.62696 -0.9689,-1.99428 -2.3002,-3.83118 -2.95899,-4.08398 -0.65878,-0.2528 -1.19922,-0.93032 -1.19922,-1.50586 0,-1.10347 -1.91121,-3.60857 -6.17187,-8.08203 -3.91932,-4.11508 -8.26715,-3.35937 -9.77539,1.69922 l -0.71485,2.40039 -0.0625,-2.80078 c -0.0345,-1.54 0.30096,-5.14 0.7461,-8 1.02641,-6.59461 1.52634,-9.2699 2.39843,-9.59961 z m 43.89063,0.85547 c 0.56317,-0.116 1.92973,0.19057 4.25976,0.88867 1.93713,0.58037 3.36365,0.65496 3.69336,0.19336 0.86845,-1.21586 16.13672,-1.18443 16.13672,0.0332 0,0.55561 -1.25706,4.38966 -2.79492,8.51953 -3.09434,8.30976 -3.38207,10.43375 -1.60547,11.9082 0.66,0.54775 1.20117,1.34977 1.20117,1.78125 0,0.43147 1.61961,2.58487 3.59961,4.78711 5.57557,6.20138 4.47757,6.91084 -2.32226,1.49805 -3.8198,-3.04064 -4.82027,-2.54722 -1.61914,0.79883 3.63492,3.79949 7.2947,5.77232 9.77539,5.26953 1.19096,-0.24139 3.36795,-0.0159 4.83594,0.5 2.52854,0.88855 2.78006,0.80014 4.79882,-1.65625 1.17201,-1.42609 2.58086,-2.58994 3.13086,-2.58594 0.55,0.004 0.91078,-0.44217 0.80078,-0.99219 -0.1163,-0.58147 0.56797,-0.97269 1.63477,-0.93359 1.30461,0.0478 1.70366,-0.27403 1.38086,-1.11523 -0.24966,-0.65061 0.13731,-1.83667 0.86133,-2.63672 1.21002,-1.33705 1.51974,-1.3582 3.82031,-0.2461 l 2.50195,1.21094 -1.83984,-1.59961 c -2.12314,-1.84646 -2.0775,-1.91684 4.8125,-7.54492 3.79094,-3.09662 5.66383,-3.34991 8.42773,-1.13867 0.66676,0.53344 1,0.53366 1,0 0,-0.44021 -0.81078,-1.34615 -1.80078,-2.01172 -1.85885,-1.2497 -1.52762,-2.85723 0.34766,-1.6875 0.57927,0.36133 1.77234,0.73969 2.65234,0.83984 1.42435,0.16209 1.40317,0.0852 -0.19922,-0.69922 -3.85279,-1.88612 -0.31091,-3.72523 4.26563,-2.21484 3.40072,1.12234 4.61775,0.43638 1.63672,-0.92187 -2.93444,-1.33702 -2.62724,-2.52703 0.49804,-1.9336 l 2.59961,0.49219 -2,-1.27148 c -1.98814,-1.26381 -1.98181,-1.26745 1.19922,-0.8418 2.49037,0.33324 2.80123,0.2584 1.40039,-0.33399 -0.99,-0.41865 -1.79883,-0.96823 -1.79883,-1.22265 0,-0.25442 1.84668,-1.31872 4.10547,-2.36524 2.95356,-1.3684 4.60792,-1.71229 5.89063,-1.22461 0.98098,0.37297 3.27352,0.47853 5.09375,0.23438 1.82023,-0.24414 3.30859,-0.15979 3.30859,0.1875 0,0.34729 -1.38746,2.46443 -3.08398,4.70508 -1.69652,2.24064 -3.94652,5.69383 -5,7.67383 -1.05348,1.98 -2.11264,3.78 -2.35352,4 -1.09535,1.00036 -4.19817,9.85804 -5.74609,16.40039 -2.30384,9.73732 -2.43782,30.88092 -0.26367,41.59961 2.0548,10.13024 4.72584,16.78512 9.86914,24.57812 3.52914,5.34725 0.71386,7.2473 -4.26367,2.87695 l -2.89844,-2.54492 0.55468,3.70703 c 0.53945,3.59727 0.48838,3.72471 -1.72851,4.24805 -12.08488,2.85292 -23.59148,5.96694 -25.88477,7.00391 l -2.80078,1.26562 5.20117,-0.41406 c 2.86,-0.2279 6.09922,-0.5823 7.19922,-0.78711 1.78526,-0.33241 1.63737,-0.0354 -1.38086,2.76758 -2.55036,2.36845 -3.41679,3.79967 -3.52539,5.82031 -0.0836,1.55502 -1.11477,3.93637 -2.45703,5.67773 -1.27184,1.65 -2.1189,3 -1.88281,3 0.23608,0 4.03765,-2.01632 8.44922,-4.48046 6.94038,-3.87662 15.14776,-7.46495 27.57422,-12.0586 3.32653,-1.22972 8.4801,-2.48243 13.22265,-3.21289 1.54,-0.2372 3.34,-0.84022 4,-1.33984 2.72439,-2.06237 4.73426,-2.86205 5.21875,-2.07813 0.94863,1.53492 2.00212,-0.0957 1.12305,-1.73828 -0.77797,-1.45365 -0.70587,-1.52797 0.74414,-0.75195 2.29456,1.22801 2.6848,1.07379 1.74219,-0.6875 -1.07229,-2.0036 -1.09015,-1.90474 0.75586,-4.0332 0.87087,-1.00413 1.36747,-2.17446 1.10351,-2.60157 -0.26397,-0.4271 0.29492,-0.36243 1.24219,0.14453 1.59341,0.85277 1.68314,0.76998 1.20898,-1.11914 -0.33024,-1.31585 -0.17996,-2.04297 0.42188,-2.04297 0.51362,0 0.72399,-0.3397 0.4668,-0.75585 -0.25719,-0.41616 0.47232,-3.38575 1.62109,-6.59961 3.20701,-8.97214 4.16719,-14.58745 4.28711,-25.04493 0.12901,-11.25066 -1.76658,-30.58437 -3.47266,-35.41992 -0.65589,-1.85899 -1.02279,-3.3789 -0.8164,-3.3789 0.20638,0 -0.11206,-1.16961 -0.70703,-2.59961 -0.59496,-1.43 -0.94692,-2.9965 -0.78321,-3.48047 0.16371,-0.48396 -0.25503,-1.33853 -0.92968,-1.89844 -1.57167,-1.30433 -1.58904,-2.51142 -0.0274,-1.91211 2.10604,0.80817 1.29554,-0.89153 -1.92383,-4.03516 -2.34261,-2.28749 -3.19775,-3.82151 -3.41796,-6.13085 l -0.29297,-3.08008 1.8164,1.70703 c 1.91094,1.79524 2.32257,1.46563 1.07617,-0.86328 -0.67295,-1.2574 -0.26341,-1.37054 4.3711,-1.20313 6.1116,0.22077 6.6858,0.51515 9.55664,4.89649 2.15227,3.28468 4.52833,4.35608 5.64648,2.54687 0.34474,-0.5578 1.05345,-0.37736 2.04883,0.52344 1.87076,1.69302 2.01797,0.60621 0.19141,-1.41211 -2.37237,-2.62104 -0.32525,-2.6247 2.3789,-0.004 3.80623,3.68914 4.64541,3.13062 0.96289,-0.64062 -3.33203,-3.41235 -3.34399,-5.5428 -0.0137,-2.41406 2.47473,2.32488 3.38814,1.72216 1.20508,-0.79493 -0.88279,-1.01787 -1.60547,-1.92593 -1.60547,-2.01953 0,-0.0936 1.53039,0.12458 3.40039,0.48633 1.87,0.36176 5.24583,0.67416 7.50196,0.69336 4.83021,0.041 5.30432,0.48867 7.75,7.33398 1.41084,3.94885 2.22084,5.15756 3.58593,5.35547 0.96984,0.1406 1.76172,-0.15209 1.76172,-0.65234 0,-0.55797 0.64628,-0.70575 1.66992,-0.38086 1.4665,0.46545 1.56505,0.33636 0.81641,-1.0625 -1.15881,-2.16524 0.87719,-4.08371 2.71484,-2.55859 1.40231,1.1638 1.63686,-0.0428 0.27344,-1.40625 -0.70141,-0.70146 -0.67807,-1.22555 0.0977,-2.16016 1.30021,-1.5663 2.13115,-1.56455 2.73437,0.008 0.30331,0.79041 0.15158,1.04146 -0.41797,0.68946 -0.52457,-0.32424 -0.75239,-0.12245 -0.54882,0.48828 0.19094,0.5728 0.86775,1.12844 1.5039,1.23437 0.63615,0.10593 1.85461,0.47128 2.70703,0.8125 1.27514,0.51042 1.14964,0.0936 -0.71093,-2.3457 -2.55908,-3.35513 -2.2698,-4.74341 0.45898,-2.20117 1.95951,1.82557 3.60661,2.16844 4.04883,0.84179 0.19295,-0.57885 2.59667,-0.5313 7.74609,0.1543 l 7.46875,0.99414 -2.44922,2.04492 c -3.08152,2.57305 -7.38552,9.7506 -10.28125,17.14649 -2.23047,5.69677 -2.23047,5.70816 -2.23047,25.69922 0,15.39767 0.33665,22.20872 1.46875,29.59961 2.12646,13.88248 5.01177,24.69052 8.54102,32 7.05203,14.60556 12.22549,18.05059 20.83984,13.88086 2.88021,-1.39416 5.81363,-1.84028 15.54883,-2.36915 18.9627,-1.03017 20.12091,-1.4374 17.65039,-6.21484 -1.64183,-3.17496 -3.47416,-4.09437 -8.19726,-4.10937 -6.4545,-0.0205 -6.53293,-0.22782 -4.35547,-11.5879 0.99992,-5.21667 -0.186,-28.22543 -1.91797,-37.19921 -1.66371,-8.62014 -5.06062,-20.89283 -6.14453,-22.19922 -0.45636,-0.55 -0.61957,-1 -0.36133,-1 0.25824,0 -0.19321,-1.53039 -1.00391,-3.40039 -3.96425,-9.14417 -5.71338,-12.29336 -7.40234,-13.32422 -1.77699,-1.08457 -1.78717,-1.14322 -0.25781,-1.67969 1.38482,-0.48577 1.18275,-0.77514 -1.61133,-2.30078 -1.75851,-0.96018 -2.38844,-1.53124 -1.39844,-1.26758 2.50769,0.66785 2.25314,-0.0793 -1,-2.93555 -1.54,-1.35214 -2.8045,-2.87058 -2.8125,-3.375 -0.008,-0.50442 -0.91916,-1.77667 -2.02539,-2.82617 -1.10624,-1.0495 -1.83749,-2.08242 -1.625,-2.29492 0.7298,-0.7298 10.58239,1.64114 12.14258,2.92188 0.85839,0.70464 2.5204,2.54486 3.69141,4.08984 2.98866,3.94307 18.09697,31.48043 20.18554,36.79101 1.39517,3.54747 2.12289,4.44678 3.75586,4.64063 1.11397,0.13225 2.48848,-0.31775 3.05469,-1 0.56622,-0.68224 1.74669,-1.24023 2.62305,-1.24023 0.87636,0 2.85568,-1.43922 4.39843,-3.19922 3.30149,-3.76643 4.9006,-4.21451 2.88868,-0.8086 -0.98991,1.67579 -1.16075,2.64395 -0.57032,3.23438 0.59042,0.59043 1.77518,-0.30564 3.95313,-2.99219 1.70992,-2.10924 4.10351,-4.91437 5.32031,-6.23437 2.50361,-2.71594 2.7538,-3.59961 1.01953,-3.59961 -1.75481,0 -1.48644,-0.92579 1.16797,-4.03125 1.30212,-1.52338 2.38249,-3.24804 2.40039,-3.83399 0.0359,-1.17607 5.673,-8.36215 6.16992,-7.86523 1.07201,1.072 3.60094,22.98784 3.52344,30.53125 -0.1269,12.35357 -0.64728,15.45189 -5.64453,33.66015 -5.61748,20.46816 -13.37081,38.55841 -22.71289,52.99024 -13.4796,20.82356 -14.10352,21.66599 -14.10352,19.0332 0,-0.66526 -0.43646,-2.16926 -0.9707,-3.3418 -0.91818,-2.01519 -1.20542,-2.10763 -5.23828,-1.6914 -2.4771,0.25566 -5.75984,1.31719 -7.82813,2.5293 -2.94294,1.72467 -3.5625,2.49824 -3.5625,4.45312 0,1.94987 0.331,2.36719 1.87891,2.36719 1.55421,0 2.10581,0.70626 3.19922,4.09179 1.88529,5.83747 1.69204,8.0543 -0.92188,10.5586 -1.23408,1.18232 -2.47843,2.14844 -2.76367,2.14844 -0.28524,0 -0.8797,-1.31127 -1.32226,-2.91407 -0.89297,-3.23409 -0.0116,-5.88476 1.95703,-5.88476 0.71664,0 1.17187,-0.77691 1.17187,-2 0,-1.73023 -0.35032,-1.9969 -2.59961,-1.9668 -4.89502,0.0656 -9.48404,1.36608 -11.52539,3.26563 -1.89473,1.76312 -2.004,2.24621 -1.51172,6.70117 0.29173,2.64 0.72857,6.62261 0.97071,8.85156 l 0.43945,4.05273 -5.88672,2.47071 c -5.17521,2.17173 -13.32957,4.92916 -37.88672,12.81445 -3.52,1.13027 -8.80112,3.28963 -11.73633,4.79883 -5.74886,2.95588 -9.75113,3.69898 -25.15039,4.66601 -8.54621,0.53667 -8.98806,0.4858 -11.4707,-1.34765 -2.12688,-1.57071 -3.52141,-1.90266 -7.91211,-1.87695 -7.31222,0.0428 -9.09885,0.65547 -13.62109,4.67187 -3.34461,2.97048 -4.72238,3.61945 -9.41406,4.43164 -13.29454,2.30145 -23.44418,4.2202 -27.89454,5.27149 -2.64,0.6236 -7.68117,1.7146 -11.20117,2.42578 -3.51999,0.71117 -10.72,2.56617 -16,4.12304 -5.28,1.55687 -13.01829,3.68943 -17.19726,4.73828 -10.21367,2.56346 -17.4038,2.33911 -28.51368,-0.89062 -6.09018,-1.77046 -10.06735,-3.84507 -15.76367,-8.2207 -4.06842,-3.12516 -7.7117,-7.42767 -7.7207,-9.11914 -0.002,-0.29627 1.00954,-0.0339 2.24805,0.58398 2.93911,1.46623 16.45126,5.5864 20.54882,6.26562 3.02631,0.50168 2.91776,0.38673 -2,-2.09179 -5.60807,-2.82643 -7.08664,-5.35573 -4.31445,-7.38281 1.32481,-0.96872 1.30206,-1.06882 -0.3457,-1.5918 -1.98602,-0.63034 -4.12761,-4.26525 -3.52149,-5.97656 0.22017,-0.62163 -0.12534,-1.52163 -0.76953,-2 -1.83689,-1.36406 -2.27553,-4.32995 -0.84961,-5.75586 1.25955,-1.25956 0.79717,-2.0547 -1.70703,-2.93555 -1.11778,-0.39318 0.28739,-3.77734 1.56836,-3.77734 0.63465,0 1.76996,-0.71961 2.52344,-1.59961 0.75348,-0.88 1.67022,-1.59961 2.03711,-1.59961 0.36689,0 2.89769,-1.10717 5.62305,-2.45899 5.77745,-2.86574 12.30707,-7.69545 17.08593,-12.63867 3.14473,-3.25287 3.59457,-3.46082 6.42578,-2.9707 2.19147,0.37939 2.70769,0.29749 1.84375,-0.29102 -0.66,-0.44959 -2.01,-0.82308 -3,-0.83008 -2.2832,-0.0155 -2.26894,-0.72356 0.0684,-3.24414 1.02799,-1.10864 2.10931,-2.97113 2.40235,-4.13867 0.29303,-1.16753 1.25189,-2.34993 2.13086,-2.6289 1.64048,-0.52067 2.23145,-2 0.79882,-2 -0.44,0 -0.80078,-0.35883 -0.80078,-0.79883 0,-0.44 0.53922,-0.80078 1.19922,-0.80078 1.60632,0 1.53724,-2.10021 -0.0898,-2.72461 -0.80849,-0.31023 -1.13846,-1.07902 -0.88281,-2.05664 0.48698,-1.8622 -1.47092,-3.72116 -3.54883,-3.36914 -1.26057,0.21356 -1.47852,-0.29606 -1.47852,-3.47657 0,-4.71187 -1.9751,-8.10902 -5.36719,-9.22851 -4.18556,-1.38134 -3.05436,-2.16907 1.96875,-1.3711 3.1585,0.50176 5.47756,0.44271 7.40235,-0.18554 2.23374,-0.72909 3.92428,-0.65383 8.31836,0.36523 3.03289,0.70337 5.6899,1.10112 5.90625,0.88477 0.58936,-0.58936 -3.08871,-1.8293 -7.30078,-2.46094 -2.0498,-0.30738 -3.72657,-0.80538 -3.72657,-1.10742 0,-1.1711 2.01192,-2.4739 3.95899,-2.5625 1.35587,-0.0617 1.57112,-0.21583 0.64062,-0.45899 -0.77,-0.20122 -1.40039,-0.62752 -1.40039,-0.94726 0,-1.50973 2.04108,-2.26914 5.45508,-2.0293 l 3.74609,0.26367 -3.60156,-0.89258 c -4.463,-1.10687 -4.4685,-1.1136 -3.125,-2.73242 0.60607,-0.73027 1.14181,-1.72839 1.19141,-2.21875 0.0496,-0.49037 0.14589,-1.57105 0.21289,-2.40234 0.10668,-1.32315 0.59522,-1.45464 3.92187,-1.05664 2.09,0.25004 4.52039,0.67067 5.40039,0.93555 l 1.59961,0.48242 -1.59961,-0.76953 c -0.88,-0.42251 -3.19409,-1.24313 -5.14257,-1.82422 -4.67771,-1.39503 -5.59378,-3.52165 -1.16016,-2.69336 3.71712,0.69443 3.12182,-0.30686 -0.6582,-1.10742 -1.88687,-0.39962 -2.60312,-0.97281 -2.51172,-2.00782 0.13875,-1.57204 -2.71621,-4.48238 -6.52735,-6.65234 -2.00128,-1.13946 -4.65944,-1.36695 -16,-1.37695 -7.48,-0.006 -19.4981,0.44626 -26.70507,1.00781 -11.92739,0.92935 -13.28542,0.90321 -15.12891,-0.30469 l -2.02539,-1.32812 1.88867,-1.00977 c 1.03871,-0.55591 2.44674,-0.81326 3.12891,-0.57031 0.80801,0.28776 0.60404,-0.25826 -0.58594,-1.56641 -1.62753,-1.78914 -1.69064,-2.12028 -0.58594,-3.03711 0.68192,-0.56594 1.14265,-1.96904 1.02539,-3.11914 -0.19537,-1.91613 0.0113,-2.07264 2.46485,-1.87695 l 2.67773,0.21289 -2.4707,-2.07813 c -2.13287,-1.7947 -2.31435,-2.23253 -1.33399,-3.21289 0.6244,-0.6244 1.75601,-1.13672 2.51563,-1.13672 1.30192,0 1.30153,-0.0874 -0.0176,-1.54492 -1.4671,-1.62114 -1.30583,-4.37113 0.5332,-9.13476 0.81964,-2.1231 1.10596,-2.24984 4.14844,-1.80274 l 3.26953,0.48047 -2.19922,-1.66406 c -2.75075,-2.08282 -2.80009,-3.13281 -0.14648,-3.13281 1.66106,0 1.96055,-0.29336 1.56641,-1.53516 -0.50201,-1.58171 1.41725,-2.77223 3.69726,-2.29297 0.6488,0.13638 0.98801,-0.33835 0.8457,-1.18359 -0.40987,-2.43427 1.87845,-2.38489 8.27344,0.17578 3.40317,1.3627 6.34651,2.3195 6.53906,2.12695 0.19256,-0.19256 -2.01963,-1.47995 -4.91406,-2.86133 -2.90645,-1.38712 -5.26172,-3.0317 -5.26172,-3.67187 0,-1.8032 3.73673,-1.74662 7.32813,0.10937 3.99177,2.06288 10.37828,4.35218 9.87695,3.54102 -0.27505,-0.44505 -0.82252,-0.80859 -1.2168,-0.80859 -0.39427,0 -3.05964,-1.12013 -5.92382,-2.48829 l -5.20703,-2.48632 2.5,-2.97852 2.5,-2.97851 7.94921,4.32031 c 4.37239,2.37631 8.12668,4.14481 8.3418,3.92969 0.43621,-0.43621 -0.48737,-1.03662 -9.94922,-6.47657 -3.63,-2.08702 -6.59961,-4.12663 -6.59961,-4.5332 0,-1.00726 3.52498,-0.12282 8.72266,2.18945 5.4655,2.43219 6.2345,2.01088 0.89453,-0.49023 -2.18794,-1.02477 -4.72502,-2.66027 -5.63867,-3.63281 l -1.66211,-1.76758 1.72851,-0.45117 c 0.95009,-0.24846 2.67902,-0.10559 3.8418,0.31836 1.97351,0.71955 1.94071,0.63226 -0.48633,-1.31055 -5.00929,-4.00984 -2.41687,-6.53925 3.38086,-3.29883 1.99004,1.11225 3.61914,1.87828 3.61914,1.70313 0,-0.17514 -1.98039,-1.78061 -4.40039,-3.56836 -2.42,-1.78776 -4.40039,-3.62883 -4.40039,-4.08985 0,-0.54607 1.61167,-0.66043 4.6211,-0.33008 4.18376,0.45926 4.78816,0.32664 6.41796,-1.4082 2.86442,-3.04903 3.51368,-6.56802 2.4668,-13.37305 -0.61836,-4.01951 -1.48046,-6.61577 -2.61328,-7.86523 l -1.69141,-1.86523 2.40039,0.57617 c 1.32,0.31668 3.05951,0.9153 3.86719,1.33008 3.48629,1.79036 1.59731,-0.0759 -3.32226,-3.28125 -2.93971,-1.9154 -5.97946,-4.32273 -6.75391,-5.34961 l -1.4082,-1.86719 2.60742,0.87695 c 1.43445,0.4825 3.04682,1.21896 3.58203,1.63672 0.5352,0.41781 1.39864,0.61842 1.91797,0.44531 0.51933,-0.17311 -1.61169,-1.83234 -4.73438,-3.6875 -8.21912,-4.88289 -8.37479,-5.8939 -0.55664,-3.60547 1.57723,0.46167 1.57845,0.44573 0.0762,-1.23632 -0.88864,-0.99497 -1.12957,-1.5344 -0.5664,-1.65039 z m 29.41992,1.94335 13.53516,0.28516 c 7.44436,0.15618 13.82249,0.45692 14.17382,0.66992 1.01633,0.61608 -1.08249,2.64649 -2.73632,2.64649 -0.82613,0 -1.50196,0.27092 -1.50196,0.60351 0,0.33259 -0.99117,1.0475 -2.20117,1.58789 -1.21,0.54039 -5.67793,4.38875 -9.92969,8.55274 -5.42456,5.31258 -7.86393,7.22674 -8.17578,6.41406 -0.50577,-1.31801 -2.89453,-1.59043 -2.89453,-0.33008 0,0.45548 0.589,1.72597 1.3086,2.82422 0.7196,1.09825 1.13848,2.16815 0.92968,2.37695 -0.41364,0.41364 -7.71539,-6.78779 -8.66601,-8.54687 -1.01582,-1.87973 0.0766,-5.86501 3.16797,-11.56641 z m 52.35156,0.85157 c -0.23937,0.23938 0.0949,0.77035 0.74219,1.17969 1.89702,1.19972 2.92107,0.82879 1.23438,-0.44727 -0.84788,-0.64146 -1.73719,-0.9718 -1.97657,-0.73242 z m 51.83789,1.90429 c 0.16684,-0.0173 0.36115,0.0584 0.56446,0.26172 0.26583,0.26584 0.33176,0.93831 0.14648,1.49414 -0.27098,0.81316 -0.45886,0.81183 -0.96289,-0.004 -0.50041,-0.8097 -0.24856,-1.70008 0.25195,-1.75196 z m 30.76563,1.94532 c 0.15247,-0.0569 0.35955,0.0236 0.61328,0.27734 0.49361,0.49361 1.43847,0.68925 2.09961,0.43555 0.98147,-0.37663 0.94673,-0.0719 -0.18945,1.66211 -1.63155,2.49006 -1.68814,2.51187 -2.32227,0.85937 -0.63626,-1.65808 -0.65857,-3.06357 -0.20117,-3.23437 z m -71.05664,7.3789 c 0.42959,0.0822 0.80657,0.43807 1.13867,1.0586 1.90687,3.56301 -0.0647,14.42941 -3.5957,19.81836 -1.39145,2.12363 -4.75708,2.47851 -5.48633,0.57812 -1.34124,-3.49521 -0.4262,-8.99908 2.43359,-14.64453 2.45692,-4.85016 4.221,-7.0571 5.50977,-6.81055 z m 75.57226,0.32032 c -0.0413,0.0413 0.19972,0.36557 0.69727,1 1.04509,1.33259 1.70312,1.75608 1.70312,1.09765 0,-0.16612 -0.63039,-0.79456 -1.40039,-1.39844 -0.63442,-0.49755 -0.9587,-0.74051 -1,-0.69921 z m -108.80078,2.45507 c -0.69595,0.002 -0.35914,0.48146 0.80078,1.14453 2.62927,1.50298 3.92905,1.51991 1.95313,0.0254 -0.8541,-0.64601 -2.09391,-1.17193 -2.75391,-1.16993 z m 169.5625,0.78125 c 0.54217,0.12941 1.30661,0.54685 1.92383,1.16407 0.66,0.66 1.7088,1.19921 2.33203,1.19921 1.75842,0 4.04493,2.96253 3.46094,4.48438 -0.45019,1.17318 -0.33668,1.20526 0.90234,0.25586 0.78005,-0.59772 1.1588,-0.78013 0.8418,-0.4043 -0.317,0.37582 0.18152,1.74851 1.10742,3.04883 1.2546,1.76191 1.84969,2.09611 2.33399,1.3125 0.49476,-0.80054 0.79256,-0.67568 1.24804,0.52539 0.32905,0.86766 1.06796,2.05334 1.64258,2.63477 0.57462,0.58143 1.04492,1.93143 1.04492,3 0,1.29559 0.46681,1.9625 1.40039,2 1.25601,0.0505 1.24618,0.11646 -0.0976,0.64453 -1.28432,0.50466 -1.34081,0.75377 -0.38672,1.74414 0.61206,0.63534 1.0911,2.14547 1.0625,3.35547 -0.0286,1.21 0.27732,2.19922 0.68164,2.19922 0.40433,0 0.24254,0.60723 -0.36133,1.34961 -0.96149,1.18202 -0.92521,1.28563 0.30078,0.82617 0.77,-0.28858 1.39849,-0.2673 1.39649,0.0488 -0.002,0.31619 -0.83394,1.61206 -1.84766,2.8789 l -1.8418,2.30274 -2.93945,-5.69727 c -1.61672,-3.1339 -3.87891,-7.18386 -5.02539,-9 -1.14648,-1.81614 -3.74567,-6.76906 -5.77539,-11.00586 -2.02971,-4.2368 -3.82629,-7.97273 -3.99414,-8.30273 -0.27204,-0.53483 0.0477,-0.69386 0.58984,-0.56446 z m -276.33008,3.01954 c 0.12796,0.34829 0.11128,1.66598 0.0645,4.26953 -0.0528,2.9285 0.1349,5.18132 0.41797,5.00586 0.99521,-0.61687 1.55283,3.82458 0.62109,4.94726 -1.29309,1.55808 -0.53187,9.6693 1.05664,11.25781 2.04489,2.04488 2.95125,0.6344 1.75195,-2.72656 -2.01021,-5.63349 -1.10733,-8.28701 1.82227,-5.35742 0.76632,0.76633 1.53724,0.96471 1.99023,0.51172 0.45298,-0.45298 -0.20974,-2.14574 -1.70898,-4.36719 -1.34657,-1.99524 -2.43352,-4.47553 -2.41602,-5.51172 0.0273,-1.61565 0.2406,-1.46685 1.49805,1.04883 0.80646,1.61342 2.20849,3.97463 3.11524,5.24805 0.90674,1.27341 1.88622,3.37481 2.17773,4.66797 0.70759,3.13897 4.46668,10.75 5.30859,10.75 0.36805,0 0.66797,0.50948 0.66797,1.13281 0,0.62333 0.45,1.34617 1,1.60547 0.55,0.25929 0.1,0.31092 -1,0.11523 -7.34357,-1.30643 -12.00252,-1.34441 -16.70898,-0.13867 -2.76054,0.70721 -5.12069,1.28516 -5.24414,1.28516 -0.12342,0 -0.0923,-0.80883 0.0684,-1.79883 0.16067,-0.99 1.00927,-7.65178 1.88671,-14.80274 0.87747,-7.15097 2.08974,-14.17058 2.69336,-15.59961 0.53664,-1.27047 0.80954,-1.89127 0.9375,-1.54296 z m 238.81836,3.17382 c 0.30671,-0.14886 0.60294,-0.10445 0.91407,0.11328 0.41483,0.29032 0.85391,0.88941 1.375,1.74414 2.71316,4.45041 1.82675,16.62562 -1.61133,22.13086 -0.61206,0.98007 -1.55755,1.78321 -2.10156,1.78321 -1.73291,0 -3.51389,-3.7329 -3.99219,-8.36719 -0.38308,-3.71166 -0.0788,-5.49447 1.75586,-10.26367 1.73248,-4.50356 2.74004,-6.69402 3.66015,-7.14063 z m 82.91993,0.13477 c 0.28521,-0.10624 0.51519,-0.0592 0.7207,0.11133 0.84132,0.69823 0.60072,1.25559 -1.20313,2.77343 -1.2414,1.04456 -3.63014,3.89197 -5.30664,6.32618 -1.6765,2.4342 -3.16759,4.42578 -3.31445,4.42578 -0.73022,0 0.0994,-1.49926 4.25195,-7.67578 2.64688,-3.93701 3.99591,-5.64221 4.85157,-5.96094 z m -259.55665,9.95508 c -0.49232,0.49232 0.098,1.84017 1.87305,4.28125 1.24195,1.708 1.22416,1.79883 -0.34179,1.79882 -3.39243,0 -2.81997,2.31828 1.07421,4.35157 v -0.002 c 2.16937,1.13273 2.46624,1.1291 3.34375,-0.0547 0.58184,-0.78485 1.61171,-1.13139 2.59961,-0.87305 2.58214,0.67524 2.66481,-0.73286 0.10547,-1.79297 -1.27095,-0.52645 -3.15599,-1.87077 -4.18945,-2.98828 l -1.87891,-2.03125 4.17383,2.0957 c 4.41306,2.21651 5.82617,2.54972 5.82617,1.37696 0,-0.8697 -12.00209,-6.74593 -12.58594,-6.16211 z m -20.80273,1.28125 c 1.17587,0 2.98828,1.5512 2.98828,2.55859 0,1.29954 -2.37071,0.58911 -3.19922,-0.95898 -0.65756,-1.22867 -0.60931,-1.59961 0.21094,-1.59961 z m 332.63672,1.22265 c -0.0598,0.25027 0.20749,0.95692 0.80859,2.08008 0.62449,1.16687 0.59328,1.91273 -0.11132,2.76172 -0.60245,0.72585 -0.80918,2.5866 -0.55079,4.94922 0.45279,4.14013 0.0741,6.04619 -1.0625,5.34375 -0.40242,-0.24871 -0.73242,0.51625 -0.73242,1.70117 0,3.6952 -1.73326,8.15386 -3.5039,9.01172 -1.52699,0.73981 -1.54586,0.8263 -0.19727,0.875 1.18893,0.043 1.30726,0.28431 0.57227,1.16992 -0.50932,0.61368 -0.82466,1.6029 -0.69922,2.19922 0.12544,0.59631 -0.21052,0.99843 -0.74805,0.89258 -0.72447,-0.14265 -0.77739,0.33599 -0.20117,1.85156 1.00766,2.65047 0.99513,4.31332 -0.0215,2.74023 -0.62064,-0.96035 -0.77906,-0.81973 -0.78906,0.69922 -0.01,1.53334 -0.22636,1.71977 -1.1289,0.97071 -0.89964,-0.74662 -1.12657,-0.57067 -1.16797,0.90234 -0.0921,3.27413 -0.37122,4.62891 -0.95118,4.62891 -0.82821,0 -2.31143,6.35619 -1.84179,7.89258 0.32686,1.06929 0.23701,1.05259 -0.5,-0.0938 -0.99583,-1.54881 -2.42188,-1.87412 -2.42188,-0.55273 0,0.46597 0.36078,0.62545 0.80078,0.35352 0.44,-0.27194 0.79883,0.10485 0.79883,0.83789 0,0.93905 -0.41205,1.17631 -1.39844,0.80078 -1.0911,-0.41539 -1.18881,-0.31958 -0.4414,0.43359 0.74567,0.75143 0.67715,1.50952 -0.30469,3.40821 -1.78542,3.45262 -3.04564,4.51953 -5.33984,4.51953 -2.29229,0 -4.50935,1.88882 -4.52735,3.85742 -0.01,1.05854 -0.15709,1.11341 -0.69922,0.25781 -0.37826,-0.59698 -0.8888,-0.76126 -1.13476,-0.36328 -0.24597,0.39799 -0.11712,1.24773 0.28711,1.88672 1.2244,1.93549 0.85719,3.10699 -1.12891,3.60547 -1.68694,0.42339 -1.85841,0.85278 -1.61914,4.04883 0.1817,2.427 -0.0115,3.40374 -0.60156,3.03906 -0.87393,-0.54012 -2.26563,0.977 -2.26563,2.46875 0,0.44 0.34887,0.25961 0.77539,-0.40039 0.58892,-0.91128 0.77811,-0.94127 0.78711,-0.125 0.007,0.5912 -0.66526,1.252 -1.49414,1.46875 -1.02089,0.26697 -1.37863,0.88673 -1.10742,1.92383 0.23527,0.89967 -0.009,1.53124 -0.5918,1.53124 -0.76266,0 -0.77351,0.26049 -0.0527,1.12891 0.54907,0.66158 0.62774,1.32017 0.19141,1.58985 -0.40946,0.25306 -0.9958,2.8038 -1.30274,5.66992 -0.30693,2.86611 -0.88995,5.21289 -1.29492,5.21289 -0.40498,0 -0.73633,2.01118 -0.73633,4.4707 0,3.75622 -0.34403,4.83801 -2.15234,6.75391 -1.18405,1.25451 -2.50052,2.06555 -2.92578,1.80273 -0.47499,-0.29357 -0.54097,0.26463 -0.17188,1.44727 1.26192,4.04338 1.40027,6.38059 0.44531,7.53125 -0.57324,0.6907 -0.64819,1.19336 -0.17773,1.19336 0.4468,0 1.03927,0.59027 1.31641,1.3125 0.42134,1.09798 0.30383,1.14815 -0.71485,0.30273 -0.8336,-0.69183 -1.21875,-0.72768 -1.21875,-0.11328 0,0.49388 -0.53922,0.89844 -1.19922,0.89844 -0.66,0 -1.20589,-0.63039 -1.21289,-1.40039 -0.01,-1.0937 -0.16237,-1.1629 -0.70117,-0.3125 -0.37932,0.5987 -0.53192,1.69748 -0.33789,2.43945 0.22187,0.84842 -0.39122,1.74785 -1.6543,2.42383 -2.19253,1.17341 -3.22983,2.94682 -2.12304,3.63086 0.38532,0.23814 1.18911,-0.0563 1.78711,-0.6543 1.25601,-1.25601 3.00016,-0.004 2.41992,1.73633 -0.18865,0.56593 0.26076,1.69507 0.99804,2.50976 1.13158,1.25036 1.16356,1.58667 0.20899,2.1543 -0.62196,0.36985 -1.33236,1.47767 -1.58008,2.46289 -0.41664,1.65701 -0.32983,1.70652 1.16406,0.66016 1.4588,-1.02178 2.39033,-2.21747 5.61914,-7.2168 0.55634,-0.86141 1.46172,-2.05819 2.01172,-2.6582 0.55,-0.60001 1,-1.96464 1,-3.03321 0,-1.06858 0.28693,-1.94335 0.63672,-1.94336 0.34979,0 1.30263,-1.6196 2.11914,-3.5996 0.81652,-1.98 1.79037,-3.59961 2.16407,-3.59961 0.37369,0 0.67968,-0.83405 0.67968,-1.85352 0,-1.01947 1.08039,-3.96582 2.40039,-6.54687 1.32,-2.58106 2.40039,-5.17238 2.40039,-5.75782 0,-0.58544 0.32942,-1.68909 0.73243,-2.45312 1.56947,-2.97542 3.16257,-7.14421 4.04687,-10.58789 0.50843,-1.98 1.59113,-5.76039 2.4043,-8.40039 0.81316,-2.64 2.27129,-7.68118 3.24023,-11.20118 2.33648,-8.48804 3.60625,-11.09977 8.15235,-16.75976 2.10274,-2.61796 3.82421,-5.22679 3.82421,-5.79883 0,-0.57204 0.30231,-1.04101 0.67188,-1.04101 0.36958,0 1.14571,-1.43922 1.72656,-3.19922 0.58085,-1.76 1.35894,-3.20118 1.72852,-3.20118 0.36957,0 0.67187,-0.63558 0.67187,-1.4121 0,-0.77652 0.71961,-2.7546 1.59961,-4.39649 0.88,-1.64189 1.61295,-3.61708 1.62695,-4.38867 0.014,-0.7716 0.53445,-2.07672 1.15821,-2.90039 0.97918,-1.29301 1.28966,-1.3412 2.26953,-0.36133 0.62419,0.62419 1.39017,1.94173 1.70312,2.92774 0.31294,0.98599 1.43629,3.30862 2.4961,5.1621 1.0598,1.85348 1.9325,3.91643 1.9375,4.58399 0.0167,2.10321 7.01061,9.33314 10.30273,10.65039 3.22442,1.29015 8.22064,0.69447 9.33789,-1.11328 0.2686,-0.43461 0.19084,-0.71138 -0.17187,-0.61328 -1.19318,0.32264 -4.29067,-1.03883 -3.87891,-1.70508 0.22166,-0.35864 -0.22301,-0.60327 -0.98828,-0.54297 -0.93903,0.074 -1.30976,-0.37206 -1.13867,-1.37109 0.13942,-0.81415 -0.0994,-1.26104 -0.53125,-0.99414 -0.43184,0.2669 -1.56606,-0.77758 -2.51953,-2.32032 -0.95347,-1.54274 -2.05083,-2.80468 -2.43946,-2.80468 -0.38863,0 -1.11585,-0.76417 -1.61523,-1.69727 -0.6381,-1.19238 -0.64578,-1.53451 -0.0273,-1.15234 0.48389,0.29906 0.8789,0.21709 0.8789,-0.18164 0,-0.39873 -0.80883,-1.11434 -1.79883,-1.5918 -0.99,-0.47746 -1.34059,-0.89208 -0.77929,-0.92188 0.77997,-0.0414 0.72448,-0.62622 -0.23438,-2.48047 -0.69003,-1.33438 -1.60022,-2.21347 -2.02148,-1.95312 -0.79445,0.49099 -1.04164,-0.47696 -0.82227,-3.2207 0.10811,-1.35226 -0.009,-1.41459 -0.75976,-0.40039 -0.71213,0.96212 -0.7857,0.83566 -0.3711,-0.63477 0.38812,-1.37655 0.021,-2.22354 -1.47265,-3.39844 -1.35141,-1.06301 -1.85474,-2.08261 -1.56836,-3.17773 0.32432,-1.24022 0.12206,-1.49785 -0.875,-1.11524 -0.71407,0.27401 -1.29688,0.0991 -1.29688,-0.38867 0,-0.48708 0.63039,-0.89143 1.40039,-0.89844 0.87113,-0.008 1.06449,-0.23389 0.51172,-0.5996 -0.74371,-0.49204 -3.60247,-5.26084 -3.94922,-6.5879 -0.52345,-2.00321 -2.57926,-5.51643 -2.98828,-5.10742 -0.28518,0.28518 -0.13521,1.23242 0.33203,2.10547 0.64591,1.20688 0.60937,1.50651 -0.15429,1.25195 -0.55243,-0.18414 -1.13051,-1.15174 -1.28321,-2.15234 -0.15271,-1.00059 -0.81505,-2.35802 -1.47265,-3.01562 -0.70184,-0.70184 -1.0886,-0.90847 -1.14844,-0.65821 z m 1.59961,6.77735 c 0.46597,0 0.62545,0.35885 0.35351,0.79882 -0.27193,0.44 -0.65362,0.80079 -0.84765,0.80079 -0.19404,0 -0.35352,-0.36077 -0.35352,-0.80079 0,-0.43999 0.3817,-0.79882 0.84766,-0.79882 z m -56.04688,4.79882 c -0.88,10e-6 -1.59961,0.27212 -1.59961,0.60352 0,0.33141 -1.30471,2.40102 -2.89843,4.59961 -2.36896,3.26813 -2.8041,3.59551 -2.38477,1.79687 0.62261,-2.67052 0.0317,-2.78936 -1.96289,-0.39843 -1.94225,2.32824 -1.93095,3.55118 0.0449,4.78515 0.88,0.54957 1.59961,1.4517 1.59961,2.00586 0,1.27757 1.78317,1.30674 3.04102,0.0488 1.31639,-1.31639 1.20288,-0.23184 -0.27344,2.62305 -0.67799,1.31107 -1.0159,2.73307 -0.75195,3.16015 0.95002,1.53716 1.93944,0.71277 3.57226,-2.97851 2.42294,-5.47745 2.803,-7.50929 1.55078,-8.2832 -0.88935,-0.54965 -0.83879,-1.17374 0.29102,-3.54297 1.76346,-3.69803 1.72678,-4.41993 -0.22852,-4.41993 z m 53.02344,0.30274 c -0.0841,0.0841 -0.14095,0.36606 -0.16016,0.83203 -0.0347,0.84333 0.1541,1.31466 0.41993,1.04883 0.26588,-0.26583 0.2936,-0.9557 0.0625,-1.5332 -0.12769,-0.3191 -0.23816,-0.43177 -0.32227,-0.34766 z m 8.79883,0 c 0.0841,-0.0841 0.19653,0.0286 0.32422,0.34766 0.23106,0.5775 0.20127,1.26737 -0.0644,1.5332 -0.26585,0.26583 -0.45463,-0.2055 -0.41993,-1.04883 0.0192,-0.46597 0.0761,-0.74792 0.16016,-0.83203 z m -56.52539,0.49805 c -1.58034,0 -3.15692,2.16804 -2.61133,3.58984 0.63827,1.66331 1.89461,1.51589 2.88672,-0.33789 1.13384,-2.11858 1.03684,-3.25195 -0.27539,-3.25195 z m 49.63672,4.1875 c 0.13259,-0.0725 0.20936,-0.007 0.19726,0.21289 -0.0833,1.51537 -1.41649,4.06592 -1.46289,2.79882 -0.0242,-0.65998 0.3059,-1.73843 0.73242,-2.39843 0.21327,-0.33 0.40062,-0.54078 0.53321,-0.61328 z m -16.66797,1.85547 c 0.29333,0.31691 0.0832,0.73716 -0.4668,0.93359 -1.39721,0.499 -1.25076,1.82422 0.20117,1.82422 0.66,0 1.19922,0.35883 1.19922,0.79883 0,0.44 -0.52501,0.80078 -1.16797,0.80078 -1.18954,0 -3.21299,5.55083 -4.15429,11.40039 -0.56255,3.49586 -1.81655,3.99294 -2.01368,0.79883 -0.39467,-6.39602 0.64964,-14.87221 1.74805,-14.19336 0.40172,0.24828 1.49306,-0.31143 2.42578,-1.24414 0.93271,-0.93272 1.93518,-1.43605 2.22852,-1.11914 z m -401.45313,0.35156 c -0.0675,0.0304 0.17775,0.35835 0.68555,1.00586 0.60388,0.77 1.47413,1.40039 1.93359,1.40039 0.45944,0 0.68529,-0.10205 0.50196,-0.22657 -0.18333,-0.12448 -1.0536,-0.75489 -1.9336,-1.40039 -0.74,-0.5428 -1.12003,-0.80971 -1.1875,-0.77929 z m 174.90625,0.18945 c 0.43963,-0.0363 0.9358,0.16321 1.48047,0.61523 1.26249,1.04778 1.5585,8.14662 0.49805,11.94141 -1.47864,5.29128 -4.09766,1.26755 -4.09766,-6.29492 0,-3.91872 0.80027,-6.15269 2.11914,-6.26172 z m 227.07422,9.15039 c 0.23812,-0.3577 0.22666,0.17261 0.0488,1.46484 -0.24211,1.76002 -0.50032,3.71066 -0.57422,4.33399 -0.10602,0.894 -3.07805,4.64451 -3.06445,3.86719 0.002,-0.11 0.92023,-2.72078 2.04101,-5.80078 0.82289,-2.26143 1.31072,-3.50753 1.54883,-3.86524 z m -403.32812,15.79883 c 0.0348,0.1107 0.47247,0.49064 1.33398,1.19531 2.23978,1.83203 2.72597,2.04332 2.00391,0.875 -0.27048,-0.43764 -1.28255,-1.18045 -2.24805,-1.65234 -0.75616,-0.36959 -1.12465,-0.52868 -1.08984,-0.41797 z m 3.36914,11.76562 c -0.22961,0.22961 -0.72357,2.65521 -1.09766,5.39063 -0.3741,2.73543 -0.42472,4.68938 -0.11133,4.3418 0.64972,-0.72057 1.84866,-10.3721 1.20899,-9.73243 z m -2.11914,11.90039 c -0.31838,10e-6 -0.70012,2.32414 -0.84766,5.16407 -0.14754,2.83993 -0.0276,4.90954 0.26563,4.59961 0.75092,-0.79363 1.28563,-9.76367 0.58203,-9.76368 z m 386.3125,14.03516 c 0.24227,0.0687 0.25648,0.5931 -0.10352,1.53125 -0.26055,0.67898 -0.8491,1.23438 -1.30664,1.23438 -0.52653,0 -0.47352,-0.5748 0.14453,-1.56446 0.5519,-0.88375 1.02335,-1.26985 1.26563,-1.20117 z m -274.37696,11.81836 c -0.63819,0.25538 -0.44953,0.44598 0.48243,0.48438 0.84333,0.0347 1.31661,-0.15409 1.05078,-0.41993 -0.26583,-0.26588 -0.95571,-0.29565 -1.53321,-0.0644 z m 4.79883,4.80078 c -0.63819,0.25538 -0.44758,0.44402 0.48438,0.48242 0.84333,0.0347 1.31466,-0.15408 1.04883,-0.41992 -0.26583,-0.26588 -0.95571,-0.2936 -1.53321,-0.0625 z m 262.36719,1.65235 c -0.1202,-0.1526 -0.31503,0.0266 -0.61719,0.49414 -0.42652,0.66 -0.78011,1.64922 -0.78711,2.19921 -0.007,0.55001 0.34711,1.00001 0.78711,1 0.44,0 0.79607,-0.98921 0.78906,-2.19921 -0.005,-0.85718 -0.0517,-1.34155 -0.17187,-1.49414 z m -266.87109,1.37695 c -0.59597,0 -0.84006,0.23926 -0.54493,0.7168 0.27193,0.44 1.46246,0.77504 2.64649,0.74414 1.92226,-0.0502 1.98139,-0.13022 0.55273,-0.74414 -1.11129,-0.47754 -2.05833,-0.7168 -2.65429,-0.7168 z m -41.47071,4.02344 c 0.79433,-0.12753 1.71523,-0.11618 2.83399,0.0137 1.49168,0.17309 3.33476,0.55677 5.6914,1.09765 7.11596,1.63321 10.82223,3.38099 12.05664,5.6875 0.88428,1.6523 0.81883,2.5636 -0.43164,6.04102 -2.41917,6.72749 -5.18186,10.96268 -10.79492,16.55469 -2.92531,2.91434 -5.91323,5.74883 -6.64062,6.29883 -2.13981,1.61797 -3.12712,1.2233 -1.9961,-0.79883 0.55373,-0.99 1.32262,-2.02974 1.70899,-2.31055 0.38637,-0.28081 0.45468,-0.9112 0.15234,-1.40039 -0.30233,-0.48919 -0.20733,-0.89061 0.21094,-0.89063 1.84453,0 1.66739,-4.13038 -0.39258,-9.14648 -2.81875,-6.86382 -6.29577,-11.11125 -8.7168,-10.64844 -2.03864,0.38971 -1.94297,-0.26842 0.73438,-5.0039 1.96443,-3.47454 3.20101,-5.11158 5.58398,-5.49414 z m 34.77539,9.74804 c -0.63819,0.25538 -0.44953,0.44404 0.48243,0.48242 0.84333,0.0347 1.31661,-0.15408 1.05078,-0.41992 -0.26583,-0.26578 -0.95571,-0.2936 -1.53321,-0.0625 z m -7.18554,1.82618 c -0.57155,0.0119 -0.66407,0.30857 -0.66407,0.89648 0,0.70962 0.20138,1.08768 0.44922,0.83984 0.24783,-0.24783 1.41744,-0.15942 2.59961,0.19727 1.18216,0.35668 3.23078,0.6513 4.55078,0.6543 2.68896,0.006 2.51058,-0.0869 -3.40039,-1.7793 -1.91381,-0.54795 -2.96361,-0.82054 -3.53515,-0.80859 z m 275.72265,1.38671 c -0.75963,0 -1.1654,0.74416 -1.125,2.06641 0.0376,1.23176 0.24303,1.5824 0.50782,0.86719 0.24434,-0.66 0.75106,-1.59169 1.125,-2.06836 0.4223,-0.53832 0.22965,-0.86524 -0.50782,-0.86524 z m -410.38672,7.8711 c 15.97505,-0.37336 20.62331,0.7383 31.15039,7.44922 11.72444,7.47422 13.71023,10.22517 6.80665,9.42773 -4.22925,-0.48853 -11.61469,3.06208 -16.93946,8.14453 -6.15673,5.87655 -6.27315,10.04102 -0.28125,10.04102 3.49741,0 3.62837,0.0926 5.22461,3.70117 0.90059,2.03594 1.63867,3.82967 1.63867,3.98633 0,0.15665 -1.79253,1.19303 -3.98242,2.30273 -4.68586,2.3745 -6.81702,5.65592 -5.65625,8.70899 0.60466,1.59037 1.51269,2.10319 4.52344,2.55468 2.07184,0.31069 4.8959,1.32623 6.27539,2.25586 1.37948,0.92963 4.38273,2.56175 6.67383,3.62696 2.29109,1.06521 4.16132,2.14364 4.15429,2.39843 -0.034,1.2856 -2.55219,2.75413 -18.97851,11.06446 -9.78425,4.95 -18.24308,8.99714 -18.79883,8.99414 -3.05706,-0.016 -13.41211,-10.20753 -13.41211,-13.20117 0,-1.80128 1.87534,-4.51102 6.64063,-9.59375 3.34551,-3.56837 4.6806,-6.54841 4.40625,-9.8418 -0.28006,-3.36207 -2.60773,-4.94073 -8.21485,-5.57031 -1.77732,-0.19957 -3.38434,-0.507 -3.57226,-0.6836 -0.70544,-0.66293 4.4955,-5.30136 8.54101,-7.61719 4.49886,-2.57531 5.03952,-3.93176 3.36133,-8.43554 -0.82681,-2.21893 -5.82234,-7.45117 -7.11328,-7.45117 -1.51509,0 -6.2481,-6.37035 -8.03906,-10.81836 -1.05911,-2.6304 -2.42442,-5.15869 -3.03321,-5.61914 -0.86907,-0.65732 -0.19088,-1.34406 3.15821,-3.19922 4.06375,-2.25104 4.79662,-2.37562 15.46679,-2.625 z m 402.23438,4.16211 c -0.145,0.0639 -0.23438,0.22014 -0.23438,0.45312 0,0.46597 0.35883,0.84572 0.79883,0.8457 0.44,0 0.80078,-0.15753 0.80078,-0.35156 0,-0.19403 -0.36078,-0.57572 -0.80078,-0.84765 -0.22,-0.13597 -0.41945,-0.16358 -0.56445,-0.0996 z m -0.23438,2.90039 c -0.44,0 -0.80078,0.35883 -0.80078,0.79883 0,0.44 0.36078,0.80078 0.80078,0.80078 0.44,0 0.79883,-0.36078 0.79883,-0.80078 0,-0.44 -0.35883,-0.79883 -0.79883,-0.79883 z m 2.39258,1.59961 c -0.43596,0 -0.79297,1.67909 -0.79297,3.73242 0,4.4711 0.57694,4.28821 1.16211,-0.36914 0.24782,-1.97238 0.0957,-3.36328 -0.36914,-3.36328 z m -2.875,7.59765 c -0.14683,-0.0647 -0.43405,0.17429 -0.94336,0.6836 -0.6402,0.64019 -0.90596,1.58226 -0.58984,2.09375 0.73584,1.19061 1.47959,0.44684 1.63281,-1.63282 0.0524,-0.7108 0.0472,-1.07978 -0.0996,-1.14453 z m 3.33399,0.66602 c -0.61409,0.034 -1.25196,0.81476 -1.25196,1.7832 0,0.63403 0.32193,1.15235 0.71485,1.15235 0.88301,0 1.74147,-2.07492 1.11719,-2.69922 -0.17508,-0.17507 -0.37539,-0.24768 -0.58008,-0.23633 z m -8.22852,1.63867 c -0.0841,0.0841 -0.14094,0.3641 -0.16016,0.83008 -0.0347,0.84334 0.1541,1.31662 0.41993,1.05078 0.26588,-0.26583 0.2936,-0.9557 0.0625,-1.5332 -0.12769,-0.3191 -0.23816,-0.43177 -0.32227,-0.34766 z m 2.9668,4.10352 c -0.43496,0.26882 -0.79102,0.8262 -0.79102,1.24023 0,1.15075 0.57363,0.89765 1.10547,-0.48828 0.27319,-0.71199 0.13904,-1.03222 -0.31445,-0.75195 z m -2.63281,5.47851 c -0.70813,-0.16019 -1.3366,0.99612 -1.23829,2.76172 l 0.1211,2.1543 0.33398,-2.21485 c 0.20181,-1.3351 0.6789,-1.99977 1.20313,-1.67578 0.5234,0.32348 0.63961,0.16365 0.29101,-0.40039 -0.23004,-0.37221 -0.47489,-0.5716 -0.71093,-0.625 z m -2.67188,1.23633 c -0.0722,0.17849 -0.12271,0.6193 -0.13086,1.2793 -0.0163,1.32002 0.15,1.95569 0.36914,1.41406 0.2191,-0.54162 0.23214,-1.62006 0.0293,-2.39844 -0.10142,-0.38918 -0.19536,-0.47341 -0.26758,-0.29492 z m -1.56641,0.46484 c -0.0628,0.32625 -0.10156,1.02368 -0.10156,2.01368 0,1.98 0.15503,2.79078 0.3457,1.80078 0.1907,-0.99 0.19069,-2.60961 0,-3.59961 -0.0953,-0.495 -0.1813,-0.5411 -0.24414,-0.21485 z m -1.60351,2.28516 c -0.066,0.25206 -0.11074,0.84852 -0.11524,1.72852 -0.009,1.76003 0.14937,2.57541 0.34961,1.81054 0.20019,-0.76487 0.20704,-2.20604 0.0156,-3.20117 -0.0957,-0.49756 -0.18403,-0.58995 -0.25,-0.33789 z m -1.14063,1.83789 c -0.20795,-0.20795 -1.07627,0.13183 -1.92968,0.75586 -0.85344,0.62402 -1.21293,1.13005 -0.79883,1.12305 1.1058,-0.018 3.16879,-1.43863 2.72851,-1.87891 z m -7.75195,4.59375 c -0.0841,0.0841 -0.14096,0.3641 -0.16016,0.83008 -0.0347,0.84334 0.1541,1.31662 0.41993,1.05078 0.26588,-0.26583 0.2936,-0.9557 0.0625,-1.5332 -0.12769,-0.3191 -0.23816,-0.43177 -0.32227,-0.34766 z m -1.60156,1.60938 c -0.2097,0.2097 -0.1455,0.7651 0.14453,1.23437 0.78885,1.27637 1.24993,1.02882 0.70898,-0.38086 -0.26054,-0.67898 -0.64381,-1.06321 -0.85351,-0.85351 z m 3.42578,0.48828 c -0.19404,0 -0.57572,0.35884 -0.84766,0.79882 -0.27193,0.44 -0.11245,0.80079 0.35352,0.80079 0.46597,0 0.8457,-0.36078 0.8457,-0.80079 0,-0.43999 -0.15753,-0.79882 -0.35156,-0.79882 z m -20.82617,10.40039 c 1.25073,0 2.2252,3.13061 4.48047,14.39843 2.96618,14.81966 9.25375,39.83205 13.07226,52 1.17367,3.74001 4.16112,13.73061 6.63867,22.20118 2.83683,9.69888 4.22405,15.6814 3.7461,16.15625 -0.47692,0.47382 -1.25715,-0.34428 -2.09961,-2.20117 -0.73738,-1.62532 -2.82336,-6.19624 -4.63477,-10.15626 -2.31751,-5.06642 -3.72241,-9.68876 -4.74218,-15.5996 -1.51586,-8.78612 -4.03212,-14.92376 -8.19336,-19.98243 -1.25878,-1.53025 -2.28907,-3.33684 -2.28907,-4.01562 0,-0.67878 -1.19593,-5.00622 -2.6582,-9.61719 -4.16055,-13.11936 -10.22527,-39.35523 -9.4043,-40.68359 0.56654,-0.91668 4.42069,-2.5 6.08399,-2.5 z m -0.19727,5.10156 c -0.0841,0.0841 -0.14095,0.3641 -0.16015,0.83008 -0.0347,0.84334 0.15408,1.31662 0.41992,1.05078 0.26578,-0.26583 0.2936,-0.9557 0.0625,-1.5332 -0.12769,-0.3191 -0.23816,-0.43177 -0.32227,-0.34766 z m -21.95898,3.48047 c 1.68446,-0.0407 2.25734,0.98463 2.75781,3.8164 0.78404,4.43629 6.84761,26.66498 7.7168,28.28907 1.41149,2.63739 1.04084,3.10339 -2.93946,3.69726 -4.96252,0.74042 -8.35313,2.1924 -10.56054,4.52539 -2.8994,3.06435 -7.81847,13.57654 -8.88086,18.97657 -0.94467,4.80167 -0.65827,17.53711 0.50976,22.6289 0.45025,1.96281 0.25037,2.15586 -2.74609,2.66211 -4.1038,0.69333 -4.59836,1.36773 -5.30273,7.2207 -0.63671,5.29049 -3.34273,12.63983 -6.05665,16.45118 -0.96385,1.35359 -3.54087,3.87624 -5.72851,5.60547 -2.18764,1.72923 -4.61585,3.14453 -5.39453,3.14453 -4.6192,0 -19.31567,-10.85002 -23.19141,-17.1211 -2.8411,-4.597 -2.45907,-4.98848 5.35156,-5.50781 4.62717,-0.30766 8.83637,-1.16245 12.41797,-2.51953 2.98004,-1.12914 6.30026,-2.05273 7.37891,-2.05274 2.54991,0 3.582,-2.10146 6.48242,-13.19921 1.93644,-7.40932 2.30255,-10.3811 2.31055,-18.80079 0.0137,-13.96356 -2.30666,-18.84361 -10.05469,-21.14453 -4.59207,-1.36369 -13.28508,-0.10839 -19.53516,2.82032 -10.67459,5.00199 -19.2569,20.34666 -20.20312,36.125 -0.23088,3.85 -0.48228,7 -0.5586,7 -0.0763,0 -1.55642,-0.68288 -3.28906,-1.51758 -1.73265,-0.83469 -7.47,-2.82898 -12.75,-4.43164 -31.44053,-9.54327 -34.06062,-10.46268 -37.80273,-13.26953 -11.32346,-8.49341 -9.65819,-17.27314 6.48828,-34.1875 6.56661,-6.87889 10.84,-9.23855 16.85351,-9.31055 3.08853,-0.037 4.85201,0.28649 5.06641,0.92969 0.18089,0.54267 0.74839,0.99907 1.26172,1.01367 0.51333,0.0146 1.7894,0.73965 2.83594,1.61133 2.80831,2.33907 1.96285,5.57246 -5.07617,19.40039 -5.22428,10.26293 -6.02735,12.39421 -6.02735,16.02148 0,2.55316 0.50424,4.9021 1.29102,6.02539 1.15818,1.65353 1.70596,1.78798 5.39843,1.32032 6.2965,-0.79751 6.81614,-1.08468 7.69532,-4.25391 0.87336,-3.14823 1.65724,-4.53671 9.34179,-16.54688 6.23199,-9.73997 8.02496,-16.06804 6.79493,-23.96875 -0.60699,-3.89886 -1.46814,-6.09685 -3.29102,-8.39843 l -2.46875,-3.11719 4.42578,-0.55274 c 2.4342,-0.30413 5.95368,-0.64159 7.82031,-0.75 1.86662,-0.10842 5.91219,-0.57687 8.99219,-1.04101 3.08,-0.46414 11.90156,-1.09301 19.60156,-1.39649 7.7,-0.30348 17.05883,-1.07017 20.79883,-1.70312 3.74,-0.63294 7.88117,-1.31914 9.20117,-1.52539 2.27783,-0.3559 4.10685,-0.78861 10.97071,-2.59961 0.84679,-0.22342 1.53226,-0.35559 2.09375,-0.36914 z m -0.42578,5.5 c -0.15099,0.15098 -0.31364,0.51185 -0.45508,1.05273 -0.34798,1.33068 -0.24404,1.64248 0.34961,1.04883 0.46485,-0.46488 0.68848,-1.31738 0.49609,-1.89453 -0.0999,-0.29958 -0.23964,-0.35802 -0.39062,-0.20703 z m -7.79493,1.05078 c -0.73937,-0.24749 -3.16033,0.69765 -4.36914,1.98438 -2.28545,2.43272 -5.15649,2.99648 -7.37109,1.44531 -1.26968,-0.88932 -2.08197,-0.98711 -3.06836,-0.3711 -0.85698,0.53523 -1.82424,0.56661 -2.67969,0.0879 -0.89309,-0.4998 -2.53281,-0.34368 -4.92578,0.46875 -1.97303,0.66981 -4.1954,0.98474 -4.93945,0.69922 -1.00951,-0.38739 -1.18908,-0.23243 -0.70508,0.61524 0.50621,0.88657 0.42683,0.93089 -0.36523,0.19922 -1.30238,-1.20311 -3.21653,-0.47929 -3.23243,1.22265 -0.007,0.78967 -0.24647,0.98073 -0.59961,0.47656 -0.84044,-1.19997 -17.36235,-0.91267 -18.85742,0.32813 -1.26453,1.04947 -7.08323,1.00354 -6.43164,-0.0508 0.21753,-0.35198 -0.32508,-0.63867 -1.20508,-0.63867 -0.88,0 -1.84108,0.39081 -2.13671,0.86914 -0.29563,0.47831 -1.24408,0.68475 -2.10743,0.45898 -1.60462,-0.41962 -4.85549,1.69147 -4.21093,2.73438 0.51253,0.82932 5.33605,0.81037 13.16015,-0.0508 3.74,-0.41161 14.14336,-0.93158 23.11719,-1.15625 16.58658,-0.41527 28.84891,-1.71043 29.81836,-3.14844 0.29481,-0.4373 1.13373,-0.88317 1.86328,-0.99024 2.46803,-0.36223 3.37818,-0.97637 3.79297,-2.5625 0.35404,-1.35388 0.0357,-1.56306 -2.21875,-1.45703 -1.44791,0.0681 -2.46341,-0.15051 -2.25586,-0.48633 0.23439,-0.37925 0.17425,-0.59523 -0.0723,-0.67773 z m -55.60351,4.15234 c -0.98005,0.0664 -1.64063,0.42982 -1.64063,1.06641 0,1.10033 0.33756,1.12897 5.59961,0.48242 0.85503,-0.10506 0.73965,-0.34409 -0.40039,-0.83398 -1.27979,-0.54995 -2.57854,-0.7812 -3.55859,-0.71485 z m 31.1582,1.51368 c 0.44,0 0.80078,0.36078 0.80078,0.80078 0,0.44 -0.36078,0.79882 -0.80078,0.79882 -0.44,0 -0.79883,-0.35882 -0.79883,-0.79882 0,-0.44 0.35883,-0.80078 0.79883,-0.80078 z m -41.79883,0.26953 c -0.55,0.22193 -0.1,0.40429 1,0.40429 1.1,0 1.55,-0.18236 1,-0.40429 -0.55,-0.22193 -1.45,-0.22193 -2,0 z m -82.95312,20.53125 c -0.46597,0 -0.84766,0.35882 -0.84766,0.79882 0,0.44003 0.15949,0.80079 0.35352,0.80079 0.19403,0 0.57572,-0.36077 0.84765,-0.80079 0.27194,-0.43997 0.11246,-0.79882 -0.35351,-0.79882 z m -11.23242,2.00781 c -0.44641,-0.27589 -1.61312,0.0606 -2.5918,0.74609 l -1.7793,1.2461 h 2.13086 c 2.27517,0 3.58236,-1.16271 2.24024,-1.99219 z m 181.20898,13.99219 c 0.47873,0 1.56973,0.53889 2.42383,1.19922 1.46195,1.13027 1.47035,1.25099 0.15234,2.04101 -2.31939,1.39025 -1.63122,3.02492 3.40625,8.09375 2.6434,2.65986 5.03084,5.72923 5.30469,6.82031 0.66812,2.66201 -0.31238,12.92928 -1.66211,17.41407 -0.59843,1.98843 -2.03824,5.23826 -3.20117,7.22265 -1.53221,2.61451 -2.60094,3.59072 -3.88086,3.54492 -3.50204,-0.12522 -5.81262,-1.60781 -8.38281,-5.3789 -6.68401,-9.80703 -7.97274,-20.95687 -3.47852,-30.08594 2.42554,-4.92696 7.52081,-10.87109 9.31836,-10.87109 z m -60.21094,4.08008 c 0.72116,0.085 1.45922,0.32997 2.21485,0.73437 2.27517,1.21763 4.7321,6.80779 4.7539,10.81641 0.0215,3.95132 -1.90475,11.63432 -4.01757,16.02343 -1.41812,2.94598 -2.09005,3.426 -7.09375,5.06641 -3.04014,0.99667 -7.03216,2.01311 -8.8711,2.25977 l -3.34375,0.44921 0.54688,-4.71484 c 1.18791,-10.24781 4.45953,-19.23629 9.86718,-27.11523 1.78078,-2.5946 3.77989,-3.7746 5.94336,-3.51953 z" />
  </g>
</svg>
